<svg x="0" y="0" width="360" height="360" xmlns="http://www.w3.org/2000/svg"><rect x="0" y="0" width="360" height="360" fill="#ffffff" /><path d="M 172.63 7.16 C 175.9 83.83 221.42 93.11 254.44 23.84" fill="none" stroke="#28639b" stroke-width="3.37" opacity="1.0" /><polygon points="254.44,23.84 254.55,29.43 250.04,27.27" fill="#28639b" opacity="1.0" /><path d="M 177.16 352.98 C 178.74 256.73 135.28 242.37 79.19 320.59" fill="none" stroke="#824663" stroke-width="3.99" opacity="1.0" /><polygon points="79.19,320.59 80.07,315.07 84.14,317.99" fill="#824663" opacity="1.0" /><path d="M 23.23 253.16 C 167.62 185.78 190.58 171.36 314.01 70.59" fill="none" stroke="#59bb55" stroke-width="1.5" opacity="1.0" /><polygon points="314.01,70.59 311.71,75.68 308.55,71.81" fill="#59bb55" opacity="1.0" /><path d="M 279.65 321.42 C 183.37 184.79 177.15 174.88 95.92 28.8" fill="none" stroke="#824663" stroke-width="2.12" opacity="1.0" /><polygon points="95.92,28.8 100.54,31.96 96.17,34.39" fill="#824663" opacity="1.0" /><path d="M 343.85 235.52 C 258.23 206.51 260.16 160.09 347.9 138.29" fill="none" stroke="#824663" stroke-width="0.87" opacity="1.0" /><polygon points="347.9,138.29 343.65,141.92 342.44,137.07" fill="#824663" opacity="1.0" /><path d="M 347.9 138.29 C 260.16 160.09 258.23 206.51 343.85 235.52" fill="none" stroke="#70846d" stroke-width="2.12" opacity="1.0" /><polygon points="343.85,235.52 338.31,236.28 339.92,231.55" fill="#70846d" opacity="1.0" /><path d="M 7.49 166.95 C 89.85 173.18 105.31 129.07 37.06 82.54" fill="none" stroke="#59bb55" stroke-width="2.75" opacity="1.0" /><polygon points="37.06,82.54 42.6,83.29 39.79,87.42" fill="#59bb55" opacity="1.0" /><path d="M 79.19 320.59 C 135.28 242.37 178.74 256.73 177.16 352.98" fill="none" stroke="#59bb55" stroke-width="1.5" opacity="1.0" /><polygon points="177.16,352.98 174.74,347.94 179.74,348.02" fill="#59bb55" opacity="1.0" /><path d="M 95.92 28.8 C 177.15 174.88 183.37 184.79 279.65 321.42" fill="none" stroke="#28639b" stroke-width="0.25" opacity="1.0" /><polygon points="279.65,321.42 274.73,318.77 278.81,315.89" fill="#28639b" opacity="1.0" /><path d="M 357.0 180.0 A 177.0 177.0 0 0 1 120.45 346.68 L 121.8 342.92 A 173.0 173.0 0 0 0 353.0 180.0 Z" fill="#824663" stroke="#824663" stroke-width="0.8" opacity="1.0" /><path d="M 118.57 346.0 A 177.0 177.0 0 0 1 13.32 120.45 L 17.08 121.8 A 173.0 173.0 0 0 0 119.96 342.25 Z" fill="#59bb55" stroke="#59bb55" stroke-width="0.8" opacity="1.0" /><path d="M 14.0 118.57 A 177.0 177.0 0 0 1 215.4 6.58 L 214.6 10.5 A 173.0 173.0 0 0 0 17.75 119.96 Z" fill="#28639b" stroke="#28639b" stroke-width="0.8" opacity="1.0" /><path d="M 217.36 6.99 A 177.0 177.0 0 0 1 356.99 178.0 L 352.99 178.05 A 173.0 173.0 0 0 0 216.51 10.9 Z" fill="#70846d" stroke="#70846d" stroke-width="0.8" opacity="1.0" /><rect x="0" y="0" width="359" height="359" fill="none" stroke="#a0a0a0" stroke-width="1" /></svg>