<svg id="histop_3929906151" x="0" y="0" width="420" height="220" xmlns="http://www.w3.org/2000/svg"><rect x="0" y="0" width="420" height="220" fill="#ffffff" /><line x1="89.0" y1="16.0" x2="89.0" y2="144.0" stroke="#a0a0a0" stroke-width="0.5" /><line x1="176.0" y1="16.0" x2="176.0" y2="144.0" stroke="#a0a0a0" stroke-width="0.5" /><line x1="263.0" y1="16.0" x2="263.0" y2="144.0" stroke="#a0a0a0" stroke-width="0.5" /><line x1="350.0" y1="16.0" x2="350.0" y2="144.0" stroke="#a0a0a0" stroke-width="0.5" /><rect x="2.0" y="16.0" width="348.0" height="16.0" fill="#5e4fa2" stroke="none" /><rect x="2.0" y="32.0" width="245.9" height="16.0" fill="#4da7b0" stroke="none" /><rect x="2.0" y="48.0" width="201.9" height="16.0" fill="#bce4a0" stroke="none" /><rect x="2.0" y="64.0" width="165.9" height="16.0" fill="#fddd88" stroke="none" /><rect x="2.0" y="80.0" width="90.5" height="16.0" fill="#f57948" stroke="none" /><rect x="2.0" y="96.0" width="64.3" height="16.0" fill="#d8424d" stroke="none" /><rect x="2.0" y="112.0" width="60.9" height="16.0" fill="#c2294a" stroke="none" /><rect x="2.0" y="128.0" width="34.9" height="16.0" fill="#9e0142" stroke="none" /><text x="4" text-anchor="start" y="30" font-family="'Noto Sans', sans-serif" fill="#000000" font-size="12px">/static/js</text><text x="4" text-anchor="start" y="46" font-family="'Noto Sans', sans-serif" fill="#000000" font-size="12px">/static/css</text><text x="4" text-anchor="start" y="62" font-family="'Noto Sans', sans-serif" fill="#000000" font-size="12px">/api/search</text><text x="4" text-anchor="start" y="78" font-family="'Noto Sans', sans-serif" fill="#000000" font-size="12px">/api/items</text><text x="4" text-anchor="start" y="94" font-family="'Noto Sans', sans-serif" fill="#000000" font-size="12px">/api/login</text><text x="4" text-anchor="start" y="110" font-family="'Noto Sans', sans-serif" fill="#000000" font-size="12px">/api/cart</text><text x="4" text-anchor="start" y="126" font-family="'Noto Sans', sans-serif" fill="#000000" font-size="12px">/api/profile</text><text x="4" text-anchor="start" y="142" font-family="'Noto Sans', sans-serif" fill="#000000" font-size="12px">/api/checkout</text><rect x="2.0" y="16.0" width="348.0" height="128.0" stroke="#a0a0a0" fill="none" stroke-width="0.5" /><text x="2" text-anchor="start" y="15" font-family="'Noto Sans', sans-serif" fill="#000000" font-size="9.6px">0</text><text x="176.0" text-anchor="middle" y="15" font-family="'Noto Sans', sans-serif" fill="#000000" font-size="9.6px">bytes</text><text x="350" text-anchor="end" y="15" font-family="'Noto Sans', sans-serif" fill="#000000" font-size="9.6px">320.5K</text><text x="352.2" text-anchor="middle" y="110.0" font-family="'Noto Sans', sans-serif" fill="#000000" font-size="9.6px" transform="rotate(90,352.2,110.0)">endpoint</text><rect x="32.8" y="209.0" width="8.0" height="8.0" fill="#cccccc" stroke="none" /><rect x="62.7" y="209.0" width="8.0" height="8.0" fill="#000000" stroke="none" /><rect x="92.5" y="209.0" width="8.0" height="8.0" fill="#cccccc" stroke="none" /><rect x="162.1" y="209.0" width="8.0" height="8.0" fill="#cccccc" stroke="none" /><rect x="201.9" y="209.0" width="8.0" height="8.0" fill="#cccccc" stroke="none" /><rect x="241.6" y="209.0" width="8.0" height="8.0" fill="#cccccc" stroke="none" /><rect x="341.1" y="209.0" width="8.0" height="8.0" fill="#cccccc" stroke="none" /><text x="370.0" text-anchor="start" y="13.0" font-family="'Noto Sans', sans-serif" fill="#000000" font-size="12.0px">rows</text><text x="370.0" text-anchor="start" y="27.0" font-family="'Noto Sans', sans-serif" fill="#404040" font-size="12.0px">45</text><rect x="370.00" y="32.00" width="10.00" height="3.16" fill="#5a53a3" /><rect x="370.00" y="34.66" width="10.00" height="3.16" fill="#545ba7" /><rect x="370.00" y="37.31" width="10.00" height="3.16" fill="#4e63ab" /><rect x="370.00" y="39.97" width="10.00" height="3.16" fill="#486baf" /><rect x="370.00" y="42.62" width="10.00" height="3.16" fill="#4273b3" /><rect x="370.00" y="45.28" width="10.00" height="3.16" fill="#3b7bb6" /><rect x="370.00" y="47.94" width="10.00" height="3.16" fill="#3583ba" /><rect x="370.00" y="50.59" width="10.00" height="3.16" fill="#348bbb" /><rect x="370.00" y="53.25" width="10.00" height="3.16" fill="#3c93b8" /><rect x="370.00" y="55.91" width="10.00" height="3.16" fill="#439bb4" /><rect x="370.00" y="58.56" width="10.00" height="3.16" fill="#4aa3b1" /><rect x="370.00" y="61.22" width="10.00" height="3.16" fill="#52abae" /><rect x="370.00" y="63.88" width="10.00" height="3.16" fill="#59b3aa" /><rect x="370.00" y="66.53" width="10.00" height="3.16" fill="#60bca7" /><rect x="370.00" y="69.19" width="10.00" height="3.16" fill="#68c3a4" /><rect x="370.00" y="71.84" width="10.00" height="3.16" fill="#72c6a4" /><rect x="370.00" y="74.50" width="10.00" height="3.16" fill="#7ccaa4" /><rect x="370.00" y="77.16" width="10.00" height="3.16" fill="#85cea4" /><rect x="370.00" y="79.81" width="10.00" height="3.16" fill="#8fd2a4" /><rect x="370.00" y="82.47" width="10.00" height="3.16" fill="#99d6a4" /><rect x="370.00" y="85.12" width="10.00" height="3.16" fill="#a2d9a4" /><rect x="370.00" y="87.78" width="10.00" height="3.16" fill="#acdda3" /><rect x="370.00" y="90.44" width="10.00" height="3.16" fill="#b4e0a2" /><rect x="370.00" y="93.09" width="10.00" height="3.16" fill="#bce4a0" /><rect x="370.00" y="95.75" width="10.00" height="3.16" fill="#c5e79e" /><rect x="370.00" y="98.41" width="10.00" height="3.16" fill="#cdeb9c" /><rect x="370.00" y="101.06" width="10.00" height="3.16" fill="#d5ee9b" /><rect x="370.00" y="103.72" width="10.00" height="3.16" fill="#def199" /><rect x="370.00" y="106.38" width="10.00" height="3.16" fill="#e6f497" /><rect x="370.00" y="109.03" width="10.00" height="3.16" fill="#e9f196" /><rect x="370.00" y="111.69" width="10.00" height="3.16" fill="#ecee94" /><rect x="370.00" y="114.34" width="10.00" height="3.16" fill="#f0eb92" /><rect x="370.00" y="117.00" width="10.00" height="3.16" fill="#f3e990" /><rect x="370.00" y="119.66" width="10.00" height="3.16" fill="#f7e68e" /><rect x="370.00" y="122.31" width="10.00" height="3.16" fill="#fae38c" /><rect x="370.00" y="124.97" width="10.00" height="3.16" fill="#fde08b" /><rect x="370.00" y="127.62" width="10.00" height="3.16" fill="#fdd985" /><rect x="370.00" y="130.28" width="10.00" height="3.16" fill="#fdd27f" /><rect x="370.00" y="132.94" width="10.00" height="3.16" fill="#fdcb79" /><rect x="370.00" y="135.59" width="10.00" height="3.16" fill="#fdc473" /><rect x="370.00" y="138.25" width="10.00" height="3.16" fill="#fdbd6d" /><rect x="370.00" y="140.91" width="10.00" height="3.16" fill="#fdb667" /><rect x="370.00" y="143.56" width="10.00" height="3.16" fill="#fdaf61" /><rect x="370.00" y="146.22" width="10.00" height="3.16" fill="#fba65d" /><rect x="370.00" y="148.88" width="10.00" height="3.16" fill="#fa9d59" /><rect x="370.00" y="151.53" width="10.00" height="3.16" fill="#f99455" /><rect x="370.00" y="154.19" width="10.00" height="3.16" fill="#f88a50" /><rect x="370.00" y="156.84" width="10.00" height="3.16" fill="#f6814c" /><rect x="370.00" y="159.50" width="10.00" height="3.16" fill="#f57848" /><rect x="370.00" y="162.16" width="10.00" height="3.16" fill="#f46f44" /><rect x="370.00" y="164.81" width="10.00" height="3.16" fill="#f06844" /><rect x="370.00" y="167.47" width="10.00" height="3.16" fill="#ec6145" /><rect x="370.00" y="170.12" width="10.00" height="3.16" fill="#e85b47" /><rect x="370.00" y="172.78" width="10.00" height="3.16" fill="#e35449" /><rect x="370.00" y="175.44" width="10.00" height="3.16" fill="#df4d4a" /><rect x="370.00" y="178.09" width="10.00" height="3.16" fill="#db474c" /><rect x="370.00" y="180.75" width="10.00" height="3.16" fill="#d6404e" /><rect x="370.00" y="183.41" width="10.00" height="3.16" fill="#d0384d" /><rect x="370.00" y="186.06" width="10.00" height="3.16" fill="#c8304c" /><rect x="370.00" y="188.72" width="10.00" height="3.16" fill="#c0274a" /><rect x="370.00" y="191.38" width="10.00" height="3.16" fill="#b91f48" /><rect x="370.00" y="194.03" width="10.00" height="3.16" fill="#b11646" /><rect x="370.00" y="196.69" width="10.00" height="3.16" fill="#a90d44" /><rect x="370.00" y="199.34" width="10.00" height="3.16" fill="#a10542" /><text x="370.0" text-anchor="start" y="213.0" font-family="'Noto Sans', sans-serif" fill="#404040" font-size="12.0px">4</text></svg>