<svg x="0" y="0" width="400" height="360" xmlns="http://www.w3.org/2000/svg"><defs><g id="cloud" transform="translate(-50,-25)"><svg x="0" y="0" width="100px" height="50px" viewBox="-5 -5.5 35 35" xmlns="http://www.w3.org/2000/svg"><path fill-rule="evenodd" clip-rule="evenodd" d="M14.09 7C14.99 6.97 15.87 7.31 16.52 7.93C17.18 8.55 17.56 9.4 17.59 10.3C17.59 10.62 17.54 10.94 17.45 11.25C18.61 11.43 19.47 12.42 19.5 13.6C19.46 14.97 18.32 16.04 16.95 16H8.04C6.68 16.04 5.54 14.97 5.5 13.6C5.52 12.48 6.31 11.52 7.41 11.28C7.41 11.25 7.41 11.23 7.41 11.2C7.45 9.84 8.59 8.76 9.96 8.8C10.27 8.8 10.59 8.86 10.89 8.97C11.49 7.75 12.73 6.98 14.09 7Z" stroke="#000000" stroke-linecap="round" stroke-linejoin="round"/></svg></g></defs><rect x="0" y="0" width="400" height="360" fill="#ffffff" /><g fill="none" stroke-width="1" opacity="1.0"><line x1="163" y1="118" x2="18" y2="266" stroke="#a3d968" /><line x1="173" y1="121" x2="101" y2="182" stroke="#a3d968" /><line x1="18" y1="266" x2="101" y2="182" stroke="#799748" /><line x1="18" y1="266" x2="163" y2="118" stroke="#799748" /><line x1="182" y1="267" x2="101" y2="182" stroke="#799748" /><line x1="253" y1="19" x2="101" y2="182" stroke="#799748" /><line x1="253" y1="19" x2="173" y2="121" stroke="#799748" /><line x1="322" y1="199" x2="43" y2="221" stroke="#9db5bd" /><line x1="322" y1="199" x2="83" y2="340" stroke="#9db5bd" /><line x1="43" y1="221" x2="101" y2="182" stroke="#799748" /><line x1="43" y1="221" x2="173" y2="121" stroke="#799748" /><line x1="43" y1="221" x2="182" y2="267" stroke="#799748" /><line x1="80" y1="169" x2="43" y2="221" stroke="#9db5bd" /><line x1="80" y1="169" x2="83" y2="340" stroke="#9db5bd" /><line x1="83" y1="340" x2="322" y2="199" stroke="#9db5bd" /></g><g stroke="#000000" stroke-width="1.0" opacity="1.0"><circle cx="101" cy="182" r="5" fill="#7f8367" /><circle cx="163" cy="118" r="5" fill="#7f8367" /><circle cx="173" cy="121" r="5" fill="#7f8367" /><circle cx="18" cy="266" r="5" fill="#7f8367" /><circle cx="182" cy="267" r="5" fill="#799748" /><circle cx="253" cy="19" r="5" fill="#799748" /><circle cx="322" cy="199" r="5" fill="#9db5bd" /><circle cx="43" cy="221" r="5" fill="#7f8367" /><circle cx="80" cy="169" r="5" fill="#9db5bd" /><circle cx="83" cy="340" r="5" fill="#9db5bd" /></g><text x="101" y="199.0" font-size="12px" text-anchor="middle">db</text><text x="163" y="135.0" font-size="12px" text-anchor="middle">queue</text><text x="173" y="138.0" font-size="12px" text-anchor="middle">cache</text><text x="18" y="283.0" font-size="12px" text-anchor="middle">worker</text><text x="182" y="284.0" font-size="12px" text-anchor="middle">auth</text><text x="253" y="36.0" font-size="12px" text-anchor="middle">report</text><text x="322" y="216.0" font-size="12px" text-anchor="middle">web</text><text x="43" y="238.0" font-size="12px" text-anchor="middle">api</text><text x="80" y="186.0" font-size="12px" text-anchor="middle">mobile</text><text x="83" y="357.0" font-size="12px" text-anchor="middle">cdn</text><text x="345.0" text-anchor="start" y="13.0" font-family="'Noto Sans', sans-serif" fill="#000000" font-size="12.0px">tier</text><rect x="345.00" y="20.00" width="8.00" height="8.00" fill="#799748" /><text x="356.0" text-anchor="start" y="27.0" font-family="'Noto Sans', sans-serif" fill="#000000" font-size="12.0px">service</text><rect x="345.00" y="34.00" width="8.00" height="8.00" fill="#9db5bd" /><text x="356.0" text-anchor="start" y="41.0" font-family="'Noto Sans', sans-serif" fill="#000000" font-size="12.0px">edge</text><rect x="345.00" y="48.00" width="8.00" height="8.00" fill="#a3d968" /><text x="356.0" text-anchor="start" y="55.0" font-family="'Noto Sans', sans-serif" fill="#000000" font-size="12.0px">data</text><rect x="0" y="0" width="399" height="359" fill="none" stroke="#a0a0a0" stroke-width="1" /></svg>