<svg id="piep_2241903809" x="0" y="0" width="320" height="320" font-family="'Noto Sans', sans-serif" xmlns="http://www.w3.org/2000/svg"><rect x="0" y="0" width="320" height="320" fill="#ffffff" /><g stroke="#ffffff" stroke-width="0.1"><path d="M 160.00 3.00 A 149.00 149.00 0 0 1 285.80 231.84 L 229.19 195.91 A 81.95 81.95 0 0 0 160.00 70.05 Z" fill="#638c8d" /><path d="M 285.80 231.84 A 149.00 149.00 0 0 1 65.02 266.81 L 107.76 215.14 A 81.95 81.95 0 0 0 229.19 195.91 Z" fill="#907e72" /><path d="M 65.02 266.81 A 149.00 149.00 0 0 1 15.68 114.95 L 80.62 131.62 A 81.95 81.95 0 0 0 107.76 215.14 Z" fill="#1bd27d" /><path d="M 15.68 114.95 A 149.00 149.00 0 0 1 88.22 21.43 L 120.52 80.19 A 81.95 81.95 0 0 0 80.62 131.62 Z" fill="#bcd21c" /><path d="M 88.22 21.43 A 149.00 149.00 0 0 1 160.00 3.00 L 160.00 70.05 A 81.95 81.95 0 0 0 120.52 80.19 Z" fill="#3c3cae" /></g><text x="261.19151387806517" text-anchor="middle" y="100.56949448310444" font-family="'Noto Sans', sans-serif" fill="#000000" font-size="12px">solar</text><text x="178.06426985052065" text-anchor="middle" y="270.2533111302235" font-family="'Noto Sans', sans-serif" fill="#000000" font-size="12px">wind</text><text x="50.176748780817135" text-anchor="middle" y="191.883737425447" font-family="'Noto Sans', sans-serif" fill="#000000" font-size="12px">hydro</text><text x="68.75684994591721" text-anchor="middle" y="85.4245579794225" font-family="'Noto Sans', sans-serif" fill="#000000" font-size="12px">nuclear</text><text x="131.28253527963852" text-anchor="middle" y="44.3528594686713" font-family="'Noto Sans', sans-serif" fill="#000000" font-size="12px">gas</text><text x="160.0" text-anchor="middle" y="314" font-family="'Noto Sans', sans-serif" fill="#000000" font-size="12px">source</text><rect x="0" y="0" width="319" height="319" fill="none" stroke="#a0a0a0" stroke-width="1" /></svg>