<svg id="piep_2241903809" x="0" y="0" width="320" height="320" xmlns="http://www.w3.org/2000/svg"><rect x="0" y="0" width="320" height="320" fill="#ffffff" /><g stroke="#ffffff" stroke-width="0.1"><path d="M 160.00 3.00 A 149.00 149.00 0 0 1 285.80 231.84 L 229.19 195.91 A 81.95 81.95 0 0 0 160.00 70.05 Z" fill="#6071d6" /><path d="M 285.80 231.84 A 149.00 149.00 0 0 1 65.02 266.81 L 107.76 215.14 A 81.95 81.95 0 0 0 229.19 195.91 Z" fill="#2d308f" /><path d="M 65.02 266.81 A 149.00 149.00 0 0 1 15.68 114.95 L 80.62 131.62 A 81.95 81.95 0 0 0 107.76 215.14 Z" fill="#e3ab47" /><path d="M 15.68 114.95 A 149.00 149.00 0 0 1 88.22 21.43 L 120.52 80.19 A 81.95 81.95 0 0 0 80.62 131.62 Z" fill="#7bd24f" /><path d="M 88.22 21.43 A 149.00 149.00 0 0 1 160.00 3.00 L 160.00 70.05 A 81.95 81.95 0 0 0 120.52 80.19 Z" fill="#83431c" /></g><text x="261.19" text-anchor="middle" y="100.57" font-family="'Noto Sans', sans-serif" fill="#000000" font-size="12px">solar</text><text x="178.06" text-anchor="middle" y="270.25" font-family="'Noto Sans', sans-serif" fill="#000000" font-size="12px">wind</text><text x="50.18" text-anchor="middle" y="191.88" font-family="'Noto Sans', sans-serif" fill="#000000" font-size="12px">hydro</text><text x="68.76" text-anchor="middle" y="85.42" font-family="'Noto Sans', sans-serif" fill="#000000" font-size="12px">nuclear</text><text x="131.28" text-anchor="middle" y="44.35" font-family="'Noto Sans', sans-serif" fill="#000000" font-size="12px">gas</text><text x="160.0" text-anchor="middle" y="314" font-family="'Noto Sans', sans-serif" fill="#000000" font-size="12px">source</text></svg>