<svg id="smallp_2142772765" x="0" y="0" width="420" height="340" xmlns="http://www.w3.org/2000/svg"><rect width="420" height="340" x="0" y="0" fill="#ffffff" /><g transform="translate(0,0)"><svg id="xyp_2916700747" x="0" y="0" width="190" height="140" xmlns="http://www.w3.org/2000/svg">
                        <defs>
                               <clipPath id="plotClip-2916700747">
                                 <rect x="13" y="1" width="176" height="126" />
                               </clipPath>
                             </defs>
                        <style> .rect-group-2916700747 rect { width: 2px; height: 2px; } </style>
                        <rect x="0" y="0" width="190" height="140" fill="#ffffff" stroke="#ffffff" />
                        <text x="14" text-anchor="start" y="138" font-family="'Noto Sans', sans-serif" fill="#0015D2" font-size="12px">-2.81</text><text x="102.52" text-anchor="middle" y="138" font-family="'Noto Sans', sans-serif" fill="#404040" font-size="12px">x</text><text x="188" text-anchor="end" y="138" font-family="'Noto Sans', sans-serif" fill="#A10000" font-size="12px">4.51</text><text x="12" text-anchor="start" y="126" font-family="'Noto Sans', sans-serif" fill="#0015D2" font-size="12px" transform="rotate(270,12,126)">-4.46...</text><text x="12" text-anchor="middle" y="62.69" font-family="'Noto Sans', sans-serif" fill="#404040" font-size="12px" transform="rotate(270,12,62.69)">y</text><text x="12" text-anchor="end" y="2" font-family="'Noto Sans', sans-serif" fill="#A10000" font-size="12px" transform="rotate(270,12,2)">3.61...</text><line x1="80.8" y1="2" x2="80.8" y2="126" stroke="#404040" stroke-width="0.6" /><text x="80.8" text-anchor="start" y="2" font-family="'Noto Sans', sans-serif" fill="#a0a0a0" font-size="7.2px" transform="rotate(90,80.8,2)">0.0</text><line x1="14" y1="57.5" x2="188" y2="57.5" stroke="#404040" stroke-width="0.6" /><text x="14" text-anchor="start" y="57.5" font-family="'Noto Sans', sans-serif" fill="#a0a0a0" font-size="7.2px">0.0</text><rect x="14" y="2" width="174" height="124" stroke="#a0a0a0" fill="none" stroke-width="0.25" />  <g class="rect-group-2916700747" stroke="none" fill="#3939ff"><rect x="142" y="30" /><rect x="128" y="48" /><rect x="114" y="50" /><rect x="118" y="42" /><rect x="144" y="44" /><rect x="144" y="56" /><rect x="130" y="16" /><rect x="138" y="48" /><rect x="150" y="28" /><rect x="142" y="40" /><rect x="120" y="72" /><rect x="132" y="22" /><rect x="120" y="34" /><rect x="134" y="38" /><rect x="126" y="8" /><rect x="88" y="40" /><rect x="122" y="54" /><rect x="170" y="52" /><rect x="122" y="56" /><rect x="168" y="52" /><rect x="146" y="46" /><rect x="124" y="38" /><rect x="154" y="46" /><rect x="126" y="64" /><rect x="136" y="32" /><rect x="138" y="34" /><rect x="124" y="48" /><rect x="162" y="26" /><rect x="112" y="52" /><rect x="136" y="48" /><rect x="184" y="70" /><rect x="118" y="56" /><rect x="156" y="46" /><rect x="116" y="52" /><rect x="100" y="44" /><rect x="130" y="32" /><rect x="102" y="48" /><rect x="120" y="48" /><rect x="106" y="30" /><rect x="150" y="30" /><rect x="152" y="44" /><rect x="130" y="60" /><rect x="130" y="46" /><rect x="122" y="36" /><rect x="138" y="22" /><rect x="174" y="32" /><rect x="126" y="38" /><rect x="158" y="20" /><rect x="136" y="42" /><rect x="122" y="32" /><rect x="130" y="48" /><rect x="126" y="56" /><rect x="134" y="34" /><rect x="112" y="28" /><rect x="132" y="42" /><rect x="174" y="56" /><rect x="126" y="26" /><rect x="72" y="56" /><rect x="122" y="42" /><rect x="148" y="48" /><rect x="104" y="48" /><rect x="164" y="44" /><rect x="154" y="36" /><rect x="154" y="30" /><rect x="142" y="48" /><rect x="176" y="30" /><rect x="126" y="14" /><rect x="134" y="36" /><rect x="112" y="40" /><rect x="134" y="28" /><rect x="132" y="54" /><rect x="148" y="42" /><rect x="164" y="70" /><rect x="136" y="56" /><rect x="110" y="36" /><rect x="118" y="44" /><rect x="186" y="32" /><rect x="116" y="30" /><rect x="90" y="42" /><rect x="152" y="34" /><rect x="140" y="14" /><rect x="106" y="36" /><rect x="114" y="48" /><rect x="114" y="24" /><rect x="148" y="36" /><rect x="96" y="52" /><rect x="158" y="48" /><rect x="138" y="68" /><rect x="114" y="34" /><rect x="122" y="16" /><rect x="160" y="44" /><rect x="116" y="40" /><rect x="114" y="40" /><rect x="106" y="28" /><rect x="136" y="54" /><rect x="112" y="48" /><rect x="134" y="12" /><rect x="132" y="44" /><rect x="132" y="14" /><rect x="146" y="50" /><rect x="110" y="60" /><rect x="136" y="58" /><rect x="138" y="18" /></g>  </svg></g><rect width="190" height="140" x="0" y="0" fill="none" stroke="#a0a0a0" stroke-width="0.5"/><text x="95.0" text-anchor="middle" y="152" font-family="'Noto Sans', sans-serif" fill="#000000" font-size="12px">south</text><g transform="translate(190,0)"><svg id="xyp_3651642154" x="0" y="0" width="190" height="140" xmlns="http://www.w3.org/2000/svg">
                        <defs>
                               <clipPath id="plotClip-3651642154">
                                 <rect x="13" y="1" width="176" height="126" />
                               </clipPath>
                             </defs>
                        <style> .rect-group-3651642154 rect { width: 2px; height: 2px; } </style>
                        <rect x="0" y="0" width="190" height="140" fill="#ffffff" stroke="#ffffff" />
                        <text x="14" text-anchor="start" y="138" font-family="'Noto Sans', sans-serif" fill="#0015D2" font-size="12px">-2.81</text><text x="102.52" text-anchor="middle" y="138" font-family="'Noto Sans', sans-serif" fill="#404040" font-size="12px">x</text><text x="188" text-anchor="end" y="138" font-family="'Noto Sans', sans-serif" fill="#A10000" font-size="12px">4.51</text><text x="12" text-anchor="start" y="126" font-family="'Noto Sans', sans-serif" fill="#0015D2" font-size="12px" transform="rotate(270,12,126)">-4.46...</text><text x="12" text-anchor="middle" y="62.69" font-family="'Noto Sans', sans-serif" fill="#404040" font-size="12px" transform="rotate(270,12,62.69)">y</text><text x="12" text-anchor="end" y="2" font-family="'Noto Sans', sans-serif" fill="#A10000" font-size="12px" transform="rotate(270,12,2)">3.61...</text><line x1="80.8" y1="2" x2="80.8" y2="126" stroke="#404040" stroke-width="0.6" /><text x="80.8" text-anchor="start" y="2" font-family="'Noto Sans', sans-serif" fill="#a0a0a0" font-size="7.2px" transform="rotate(90,80.8,2)">0.0</text><line x1="14" y1="57.5" x2="188" y2="57.5" stroke="#404040" stroke-width="0.6" /><text x="14" text-anchor="start" y="57.5" font-family="'Noto Sans', sans-serif" fill="#a0a0a0" font-size="7.2px">0.0</text><rect x="14" y="2" width="174" height="124" stroke="#a0a0a0" fill="none" stroke-width="0.25" />  <g class="rect-group-3651642154" stroke="none" fill="#3939ff"><rect x="42" y="30" /><rect x="40" y="42" /><rect x="24" y="32" /><rect x="54" y="32" /><rect x="100" y="10" /><rect x="98" y="20" /><rect x="66" y="48" /><rect x="96" y="14" /><rect x="64" y="26" /><rect x="24" y="58" /><rect x="58" y="26" /><rect x="68" y="24" /><rect x="46" y="10" /><rect x="60" y="28" /><rect x="90" y="16" /><rect x="50" y="34" /><rect x="76" y="24" /><rect x="58" y="24" /><rect x="14" y="24" /><rect x="92" y="42" /><rect x="70" y="32" /><rect x="50" y="18" /><rect x="36" y="18" /><rect x="48" y="24" /><rect x="40" y="24" /><rect x="70" y="18" /><rect x="50" y="14" /><rect x="70" y="48" /><rect x="66" y="22" /><rect x="94" y="54" /><rect x="48" y="20" /><rect x="40" y="30" /><rect x="100" y="40" /><rect x="46" y="6" /><rect x="52" y="32" /><rect x="44" y="26" /><rect x="62" y="8" /><rect x="34" y="14" /><rect x="52" y="16" /><rect x="70" y="26" /><rect x="40" y="26" /><rect x="44" y="44" /><rect x="76" y="28" /><rect x="74" y="20" /><rect x="32" y="48" /><rect x="74" y="2" /><rect x="64" y="20" /><rect x="46" y="12" /><rect x="48" y="12" /><rect x="78" y="32" /><rect x="40" y="44" /><rect x="54" y="40" /><rect x="46" y="28" /><rect x="84" y="20" /><rect x="46" y="18" /><rect x="76" y="40" /><rect x="64" y="22" /><rect x="50" y="30" /><rect x="66" y="20" /><rect x="48" y="2" /><rect x="66" y="34" /><rect x="60" y="34" /><rect x="58" y="40" /><rect x="60" y="12" /><rect x="40" y="20" /><rect x="66" y="30" /><rect x="80" y="8" /><rect x="30" y="22" /><rect x="70" y="2" /><rect x="80" y="12" /><rect x="74" y="4" /><rect x="46" y="48" /><rect x="72" y="18" /><rect x="58" y="18" /><rect x="72" y="20" /><rect x="20" y="12" /><rect x="58" y="16" /><rect x="66" y="24" /><rect x="36" y="8" /><rect x="68" y="44" /><rect x="48" y="32" /><rect x="48" y="22" /><rect x="54" y="16" /><rect x="66" y="26" /><rect x="26" y="36" /><rect x="50" y="6" /><rect x="40" y="6" /><rect x="36" y="48" /><rect x="56" y="40" /><rect x="72" y="36" /><rect x="52" y="24" /><rect x="90" y="28" /><rect x="36" y="28" /><rect x="24" y="8" /><rect x="70" y="40" /><rect x="68" y="34" /><rect x="42" y="20" /><rect x="72" y="12" /><rect x="48" y="28" /><rect x="48" y="18" /><rect x="46" y="34" /></g>  </svg></g><rect width="190" height="140" x="190" y="0" fill="none" stroke="#a0a0a0" stroke-width="0.5"/><text x="285.0" text-anchor="middle" y="152" font-family="'Noto Sans', sans-serif" fill="#000000" font-size="12px">east</text><g transform="translate(0,155)"><svg id="xyp_1716808028" x="0" y="0" width="190" height="140" xmlns="http://www.w3.org/2000/svg">
                        <defs>
                               <clipPath id="plotClip-1716808028">
                                 <rect x="13" y="1" width="176" height="126" />
                               </clipPath>
                             </defs>
                        <style> .rect-group-1716808028 rect { width: 2px; height: 2px; } </style>
                        <rect x="0" y="0" width="190" height="140" fill="#ffffff" stroke="#ffffff" />
                        <text x="14" text-anchor="start" y="138" font-family="'Noto Sans', sans-serif" fill="#0015D2" font-size="12px">-2.81</text><text x="102.52" text-anchor="middle" y="138" font-family="'Noto Sans', sans-serif" fill="#404040" font-size="12px">x</text><text x="188" text-anchor="end" y="138" font-family="'Noto Sans', sans-serif" fill="#A10000" font-size="12px">4.51</text><text x="12" text-anchor="start" y="126" font-family="'Noto Sans', sans-serif" fill="#0015D2" font-size="12px" transform="rotate(270,12,126)">-4.46...</text><text x="12" text-anchor="middle" y="62.69" font-family="'Noto Sans', sans-serif" fill="#404040" font-size="12px" transform="rotate(270,12,62.69)">y</text><text x="12" text-anchor="end" y="2" font-family="'Noto Sans', sans-serif" fill="#A10000" font-size="12px" transform="rotate(270,12,2)">3.61...</text><line x1="80.8" y1="2" x2="80.8" y2="126" stroke="#404040" stroke-width="0.6" /><text x="80.8" text-anchor="start" y="2" font-family="'Noto Sans', sans-serif" fill="#a0a0a0" font-size="7.2px" transform="rotate(90,80.8,2)">0.0</text><line x1="14" y1="57.5" x2="188" y2="57.5" stroke="#404040" stroke-width="0.6" /><text x="14" text-anchor="start" y="57.5" font-family="'Noto Sans', sans-serif" fill="#a0a0a0" font-size="7.2px">0.0</text><rect x="14" y="2" width="174" height="124" stroke="#a0a0a0" fill="none" stroke-width="0.25" />  <g class="rect-group-1716808028" stroke="none" fill="#3939ff"><rect x="60" y="70" /><rect x="104" y="68" /><rect x="74" y="62" /><rect x="100" y="78" /><rect x="98" y="46" /><rect x="84" y="62" /><rect x="70" y="38" /><rect x="56" y="80" /><rect x="62" y="38" /><rect x="82" y="42" /><rect x="78" y="50" /><rect x="64" y="48" /><rect x="100" y="70" /><rect x="102" y="46" /><rect x="82" y="66" /><rect x="98" y="48" /><rect x="98" y="68" /><rect x="86" y="82" /><rect x="88" y="64" /><rect x="60" y="50" /><rect x="82" y="70" /><rect x="64" y="70" /><rect x="76" y="58" /><rect x="72" y="38" /><rect x="24" y="44" /><rect x="92" y="50" /><rect x="80" y="62" /><rect x="78" y="30" /><rect x="66" y="58" /><rect x="82" y="62" /><rect x="70" y="46" /><rect x="76" y="60" /><rect x="94" y="72" /><rect x="72" y="72" /><rect x="108" y="64" /><rect x="56" y="48" /><rect x="112" y="44" /><rect x="96" y="50" /><rect x="94" y="64" /><rect x="64" y="40" /><rect x="80" y="56" /><rect x="98" y="26" /><rect x="76" y="36" /><rect x="110" y="40" /><rect x="74" y="54" /><rect x="78" y="64" /><rect x="66" y="62" /><rect x="84" y="46" /><rect x="50" y="62" /><rect x="84" y="48" /><rect x="112" y="62" /><rect x="98" y="44" /><rect x="70" y="60" /><rect x="112" y="38" /><rect x="64" y="80" /><rect x="108" y="70" /><rect x="66" y="76" /><rect x="76" y="46" /><rect x="128" y="38" /><rect x="72" y="60" /><rect x="82" y="54" /><rect x="104" y="48" /><rect x="60" y="72" /><rect x="64" y="50" /><rect x="76" y="48" /><rect x="30" y="64" /><rect x="80" y="40" /><rect x="62" y="68" /><rect x="104" y="30" /><rect x="68" y="52" /><rect x="66" y="52" /><rect x="84" y="66" /><rect x="96" y="38" /><rect x="88" y="72" /><rect x="64" y="62" /><rect x="102" y="58" /><rect x="90" y="48" /><rect x="62" y="50" /><rect x="44" y="56" /><rect x="76" y="44" /><rect x="92" y="62" /><rect x="80" y="34" /><rect x="98" y="74" /><rect x="60" y="76" /><rect x="90" y="36" /><rect x="138" y="50" /><rect x="50" y="68" /><rect x="68" y="72" /><rect x="130" y="72" /><rect x="74" y="44" /><rect x="90" y="56" /><rect x="40" y="58" /></g>  </svg></g><rect width="190" height="140" x="0" y="155" fill="none" stroke="#a0a0a0" stroke-width="0.5"/><text x="95.0" text-anchor="middle" y="307" font-family="'Noto Sans', sans-serif" fill="#000000" font-size="12px">north</text><g transform="translate(190,155)"><svg id="xyp_2305055487" x="0" y="0" width="190" height="140" xmlns="http://www.w3.org/2000/svg">
                        <defs>
                               <clipPath id="plotClip-2305055487">
                                 <rect x="13" y="1" width="176" height="126" />
                               </clipPath>
                             </defs>
                        <style> .rect-group-2305055487 rect { width: 2px; height: 2px; } </style>
                        <rect x="0" y="0" width="190" height="140" fill="#ffffff" stroke="#ffffff" />
                        <text x="14" text-anchor="start" y="138" font-family="'Noto Sans', sans-serif" fill="#0015D2" font-size="12px">-2.81</text><text x="102.52" text-anchor="middle" y="138" font-family="'Noto Sans', sans-serif" fill="#404040" font-size="12px">x</text><text x="188" text-anchor="end" y="138" font-family="'Noto Sans', sans-serif" fill="#A10000" font-size="12px">4.51</text><text x="12" text-anchor="start" y="126" font-family="'Noto Sans', sans-serif" fill="#0015D2" font-size="12px" transform="rotate(270,12,126)">-4.46...</text><text x="12" text-anchor="middle" y="62.69" font-family="'Noto Sans', sans-serif" fill="#404040" font-size="12px" transform="rotate(270,12,62.69)">y</text><text x="12" text-anchor="end" y="2" font-family="'Noto Sans', sans-serif" fill="#A10000" font-size="12px" transform="rotate(270,12,2)">3.61...</text><line x1="80.8" y1="2" x2="80.8" y2="126" stroke="#404040" stroke-width="0.6" /><text x="80.8" text-anchor="start" y="2" font-family="'Noto Sans', sans-serif" fill="#a0a0a0" font-size="7.2px" transform="rotate(90,80.8,2)">0.0</text><line x1="14" y1="57.5" x2="188" y2="57.5" stroke="#404040" stroke-width="0.6" /><text x="14" text-anchor="start" y="57.5" font-family="'Noto Sans', sans-serif" fill="#a0a0a0" font-size="7.2px">0.0</text><rect x="14" y="2" width="174" height="124" stroke="#a0a0a0" fill="none" stroke-width="0.25" />  <g class="rect-group-2305055487" stroke="none" fill="#3939ff"><rect x="102" y="82" /><rect x="98" y="98" /><rect x="138" y="112" /><rect x="110" y="94" /><rect x="102" y="96" /><rect x="84" y="124" /><rect x="94" y="110" /><rect x="136" y="74" /><rect x="106" y="92" /><rect x="106" y="90" /><rect x="78" y="90" /><rect x="130" y="96" /><rect x="120" y="76" /><rect x="96" y="88" /><rect x="86" y="88" /><rect x="118" y="92" /><rect x="118" y="90" /><rect x="110" y="124" /><rect x="92" y="90" /><rect x="92" y="84" /><rect x="86" y="86" /><rect x="94" y="54" /><rect x="120" y="98" /><rect x="104" y="98" /><rect x="82" y="74" /><rect x="118" y="108" /><rect x="102" y="104" /><rect x="78" y="74" /><rect x="102" y="90" /><rect x="82" y="88" /><rect x="112" y="72" /><rect x="112" y="78" /><rect x="112" y="80" /><rect x="78" y="76" /><rect x="106" y="98" /><rect x="100" y="94" /><rect x="98" y="88" /><rect x="140" y="90" /><rect x="116" y="106" /><rect x="84" y="92" /><rect x="128" y="66" /><rect x="144" y="80" /><rect x="112" y="88" /><rect x="104" y="78" /><rect x="78" y="86" /><rect x="86" y="82" /><rect x="72" y="70" /><rect x="82" y="52" /><rect x="96" y="82" /><rect x="122" y="106" /><rect x="92" y="106" /><rect x="90" y="96" /><rect x="104" y="68" /><rect x="86" y="78" /><rect x="90" y="86" /><rect x="116" y="100" /><rect x="100" y="110" /><rect x="112" y="92" /><rect x="84" y="80" /><rect x="98" y="74" /><rect x="130" y="68" /><rect x="150" y="78" /><rect x="114" y="84" /><rect x="134" y="72" /><rect x="72" y="92" /><rect x="100" y="102" /><rect x="134" y="66" /><rect x="92" y="104" /><rect x="134" y="78" /><rect x="120" y="104" /><rect x="104" y="72" /><rect x="92" y="110" /><rect x="82" y="66" /><rect x="88" y="96" /><rect x="86" y="90" /><rect x="150" y="114" /><rect x="106" y="84" /><rect x="116" y="76" /></g>  </svg></g><rect width="190" height="140" x="190" y="155" fill="none" stroke="#a0a0a0" stroke-width="0.5"/><text x="285.0" text-anchor="middle" y="307" font-family="'Noto Sans', sans-serif" fill="#000000" font-size="12px">west</text></svg>