<svg x="0" y="0" width="520" height="260" viewBox="49.2 10.0 1088.0 232.0" xmlns="http://www.w3.org/2000/svg"><rect x="49.2" y="10.0" width="1088.0" height="232.0" fill="#ffffff"/><line x1="81.2" y1="130.0" x2="1105.2" y2="130.0" stroke="#3939ff" stroke-width="3.0"/><path d="M 994.5 148.0 L 1002.6 148.0 C 1035.1 148.0 1035.1 112.0 1067.6 112.0 L 1075.8 112.0" stroke="#b1cba5" stroke-width="1.5" fill="none" /><path d="M 883.8 148.0 L 891.9 148.0 C 924.4 148.0 924.4 148.0 956.9 148.0 L 965.0 148.0" stroke="#b1cba5" stroke-width="1.5" fill="none" /><path d="M 965.0 112.0 L 960.2 112.0 C 941.0 112.0 941.0 70.0 921.8 70.0 L 917.0 70.0" stroke="#a0a0a0" stroke-width="2.0" fill="none" /><path d="M 773.0 148.0 L 781.1 148.0 C 813.6 148.0 813.6 70.0 846.1 70.0 L 854.2 70.0" stroke="#a0a0a0" stroke-width="2.0" fill="none" /><path d="M 1075.8 164.0 L 1071.0 164.0 C 1051.8 164.0 1051.8 190.0 1032.5 190.0 L 1027.8 190.0" stroke="#a0a0a0" stroke-width="2.0" fill="none" /><path d="M 773.0 112.0 L 781.1 112.0 C 813.6 112.0 813.6 190.0 846.1 190.0 L 854.2 190.0" stroke="#a0a0a0" stroke-width="2.0" fill="none" /><path d="M 854.2 148.0 L 849.5 148.0 C 830.2 148.0 830.2 212.0 811.0 212.0 L 806.2 212.0" stroke="#a0a0a0" stroke-width="2.0" fill="none" /><path d="M 663.0 148.0 L 672.6 148.0 C 711.0 148.0 711.0 212.0 749.4 212.0 L 759.0 212.0" stroke="#a0a0a0" stroke-width="2.0" fill="none" /><path d="M 1075.8 148.0 L 1071.0 148.0 C 1051.8 148.0 1051.8 190.0 1032.5 190.0 L 1027.8 190.0" stroke="#a0a0a0" stroke-width="2.0" fill="none" /><path d="M 663.0 96.0 L 672.6 96.0 C 711.0 96.0 711.0 190.0 749.4 190.0 L 759.0 190.0" stroke="#a0a0a0" stroke-width="2.0" fill="none" /><path d="M 663.0 112.0 L 671.2 112.0 C 704.0 112.0 704.0 148.0 736.8 148.0 L 745.0 148.0" stroke="#878665" stroke-width="1.5" fill="none" /><path d="M 745.0 112.0 L 740.2 112.0 C 721.0 112.0 721.0 28.0 701.8 28.0 L 697.0 28.0" stroke="#a0a0a0" stroke-width="2.0" fill="none" /><path d="M 552.2 96.0 L 561.9 96.0 C 600.2 96.0 600.2 28.0 638.6 28.0 L 648.2 28.0" stroke="#a0a0a0" stroke-width="2.0" fill="none" /><path d="M 552.2 148.0 L 560.4 148.0 C 592.9 148.0 592.9 112.0 625.4 112.0 L 633.5 112.0" stroke="#878665" stroke-width="1.5" fill="none" /><path d="M 552.2 112.0 L 560.4 112.0 C 592.9 112.0 592.9 96.0 625.4 96.0 L 633.5 96.0" stroke="#6946a2" stroke-width="1.5" fill="none" /><path d="M 442.2 112.0 L 450.4 112.0 C 483.2 112.0 483.2 96.0 516.0 96.0 L 524.2 96.0" stroke="#666b81" stroke-width="1.5" fill="none" /><path d="M 854.2 112.0 L 849.5 112.0 C 830.2 112.0 830.2 48.0 811.0 48.0 L 806.2 48.0" stroke="#a0a0a0" stroke-width="2.0" fill="none" /><path d="M 331.5 112.0 L 341.1 112.0 C 379.5 112.0 379.5 48.0 417.9 48.0 L 427.5 48.0" stroke="#a0a0a0" stroke-width="2.0" fill="none" /><path d="M 331.5 148.0 L 339.6 148.0 C 372.1 148.0 372.1 112.0 404.6 112.0 L 412.8 112.0" stroke="#666b81" stroke-width="1.5" fill="none" /><path d="M 524.2 112.0 L 519.5 112.0 C 500.2 112.0 500.2 28.0 481.1 28.0 L 476.2 28.0" stroke="#a0a0a0" stroke-width="2.0" fill="none" /><path d="M 221.5 80.0 L 231.1 80.0 C 269.5 80.0 269.5 28.0 307.9 28.0 L 317.5 28.0" stroke="#a0a0a0" stroke-width="2.0" fill="none" /><path d="M 965.0 96.0 L 960.2 96.0 C 941.0 96.0 941.0 70.0 921.8 70.0 L 917.0 70.0" stroke="#a0a0a0" stroke-width="2.0" fill="none" /><path d="M 221.5 64.0 L 231.1 64.0 C 269.5 64.0 269.5 70.0 307.9 70.0 L 317.5 70.0" stroke="#a0a0a0" stroke-width="2.0" fill="none" /><path d="M 221.5 112.0 L 229.7 112.0 C 262.5 112.0 262.5 148.0 295.3 148.0 L 303.5 148.0" stroke="#666b81" stroke-width="1.5" fill="none" /><path d="M 221.5 96.0 L 229.7 96.0 C 262.5 96.0 262.5 112.0 295.3 112.0 L 303.5 112.0" stroke="#c28357" stroke-width="1.5" fill="none" /><path d="M 412.8 148.0 L 407.9 148.0 C 388.8 148.0 388.8 208.0 369.6 208.0 L 364.8 208.0" stroke="#a0a0a0" stroke-width="2.0" fill="none" /><path d="M 110.8 164.0 L 120.3 164.0 C 158.8 164.0 158.8 208.0 197.2 208.0 L 206.8 208.0" stroke="#a0a0a0" stroke-width="2.0" fill="none" /><path d="M 524.2 148.0 L 519.5 148.0 C 500.2 148.0 500.2 188.0 481.1 188.0 L 476.2 188.0" stroke="#a0a0a0" stroke-width="2.0" fill="none" /><path d="M 110.8 112.0 L 120.3 112.0 C 158.8 112.0 158.8 188.0 197.2 188.0 L 206.8 188.0" stroke="#a0a0a0" stroke-width="2.0" fill="none" /><path d="M 110.8 96.0 L 118.9 96.0 C 151.4 96.0 151.4 112.0 183.9 112.0 L 192.0 112.0" stroke="#666b81" stroke-width="1.5" fill="none" /><path d="M 110.8 148.0 L 118.9 148.0 C 151.4 148.0 151.4 96.0 183.9 96.0 L 192.0 96.0" stroke="#c28357" stroke-width="1.5" fill="none" /><circle cx="96.0" cy="130.0" r="7.0" stroke="#a0a0a0" stroke-width="0.4" fill="#3939ff"/><circle cx="96.0" cy="112.0" r="7.0" stroke="#878665" stroke-width="1.25" fill="#878665" fill-opacity="0.25"/><path d="M 92.5 112.0 L 87.5 119.0 L 87.5 105.0 Z" stroke="none" fill="#0000ff" /><circle cx="96.0" cy="96.0" r="7.0" stroke="#666b81" stroke-width="1.25" fill="#666b81" fill-opacity="0.25"/><path d="M 92.5 96.0 L 87.5 103.0 L 87.5 89.0 Z" stroke="none" fill="#0000ff" /><circle cx="96.0" cy="148.0" r="7.0" stroke="#c28357" stroke-width="1.25" fill="#c28357" fill-opacity="0.25"/><path d="M 92.5 148.0 L 87.5 155.0 L 87.5 141.0 Z" stroke="none" fill="#0000ff" /><circle cx="96.0" cy="164.0" r="7.0" stroke="#94c171" stroke-width="1.25" fill="#94c171" fill-opacity="0.25"/><path d="M 92.5 164.0 L 87.5 171.0 L 87.5 157.0 Z" stroke="none" fill="#0000ff" /><path d="M 81.25 135.60 L 81.25 172.40 C 81.25 178.00 81.25 178.00 86.85 178.00 L 105.15 178.00 C 110.75 178.00 110.75 178.00 110.75 172.40 L 110.75 135.60 C 110.75 130.00 110.75 130.00 110.75 124.40 L 110.75 87.60 C 110.75 82.00 110.75 82.00 105.15 82.00 L 86.85 82.00 C 81.25 82.00 81.25 82.00 81.25 87.60 L 81.25 124.40 C 81.25 130.00 81.25 130.00 81.25 135.60 Z" stroke="#a0a0a0" stroke-width="2.0" fill="none"/><circle cx="206.8" cy="130.0" r="7.0" stroke="#a0a0a0" stroke-width="0.4" fill="#3939ff"/><circle cx="206.8" cy="112.0" r="7.0" stroke="#666b81" stroke-width="1.25" fill="#666b81" fill-opacity="0.25"/><circle cx="206.8" cy="96.0" r="7.0" stroke="#c28357" stroke-width="1.25" fill="#c28357" fill-opacity="0.25"/><circle cx="206.8" cy="80.0" r="7.0" stroke="#6946a2" stroke-width="1.25" fill="#6946a2" fill-opacity="0.25"/><path d="M 203.2 80.0 L 198.2 87.0 L 198.2 73.0 Z" stroke="none" fill="#0000ff" /><circle cx="206.8" cy="64.0" r="7.0" stroke="#546c89" stroke-width="1.25" fill="#546c89" fill-opacity="0.25"/><path d="M 203.2 64.0 L 198.2 71.0 L 198.2 57.0 Z" stroke="none" fill="#0000ff" /><path d="M 192.00 133.50 L 192.00 133.50 C 192.00 137.00 192.00 137.00 197.60 137.00 L 215.90 137.00 C 221.50 137.00 221.50 137.00 221.50 133.50 L 221.50 133.50 C 221.50 130.00 221.50 130.00 221.50 124.40 L 221.50 55.60 C 221.50 50.00 221.50 50.00 215.90 50.00 L 197.60 50.00 C 192.00 50.00 192.00 50.00 192.00 55.60 L 192.00 124.40 C 192.00 130.00 192.00 130.00 192.00 133.50 Z" stroke="#a0a0a0" stroke-width="2.0" fill="none"/><circle cx="317.5" cy="130.0" r="7.0" stroke="#a0a0a0" stroke-width="0.4" fill="#3939ff"/><circle cx="317.5" cy="112.0" r="7.0" stroke="#c28357" stroke-width="1.25" fill="#c28357" fill-opacity="0.25"/><circle cx="317.5" cy="148.0" r="7.0" stroke="#666b81" stroke-width="1.25" fill="#666b81" fill-opacity="0.25"/><path d="M 303.50 135.60 L 303.50 156.40 C 303.50 162.00 303.50 162.00 309.10 162.00 L 325.90 162.00 C 331.50 162.00 331.50 162.00 331.50 156.40 L 331.50 135.60 C 331.50 130.00 331.50 130.00 331.50 124.40 L 331.50 103.60 C 331.50 98.00 331.50 98.00 325.90 98.00 L 309.10 98.00 C 303.50 98.00 303.50 98.00 303.50 103.60 L 303.50 124.40 C 303.50 130.00 303.50 130.00 303.50 135.60 Z" stroke="#a0a0a0" stroke-width="2.0" fill="none"/><circle cx="427.5" cy="130.0" r="7.0" stroke="#a0a0a0" stroke-width="0.4" fill="#3939ff"/><circle cx="427.5" cy="112.0" r="7.0" stroke="#666b81" stroke-width="1.25" fill="#666b81" fill-opacity="0.25"/><circle cx="427.5" cy="148.0" r="7.0" stroke="#94c171" stroke-width="1.25" fill="#94c171" fill-opacity="0.25"/><path d="M 431.0 148.0 L 436.0 155.0 L 436.0 141.0 Z" stroke="none" fill="#ff0000" /><path d="M 412.75 135.60 L 412.75 156.40 C 412.75 162.00 412.75 162.00 418.35 162.00 L 436.65 162.00 C 442.25 162.00 442.25 162.00 442.25 156.40 L 442.25 135.60 C 442.25 130.00 442.25 130.00 442.25 124.40 L 442.25 103.60 C 442.25 98.00 442.25 98.00 436.65 98.00 L 418.35 98.00 C 412.75 98.00 412.75 98.00 412.75 103.60 L 412.75 124.40 C 412.75 130.00 412.75 130.00 412.75 135.60 Z" stroke="#a0a0a0" stroke-width="2.0" fill="none"/><circle cx="538.2" cy="130.0" r="7.0" stroke="#a0a0a0" stroke-width="0.4" fill="#3939ff"/><circle cx="538.2" cy="112.0" r="7.0" stroke="#6946a2" stroke-width="1.25" fill="#6946a2" fill-opacity="0.25"/><circle cx="538.2" cy="96.0" r="7.0" stroke="#666b81" stroke-width="1.25" fill="#666b81" fill-opacity="0.25"/><circle cx="538.2" cy="148.0" r="7.0" stroke="#878665" stroke-width="1.25" fill="#878665" fill-opacity="0.25"/><path d="M 524.25 135.60 L 524.25 156.40 C 524.25 162.00 524.25 162.00 529.85 162.00 L 546.65 162.00 C 552.25 162.00 552.25 162.00 552.25 156.40 L 552.25 135.60 C 552.25 130.00 552.25 130.00 552.25 124.40 L 552.25 87.60 C 552.25 82.00 552.25 82.00 546.65 82.00 L 529.85 82.00 C 524.25 82.00 524.25 82.00 524.25 87.60 L 524.25 124.40 C 524.25 130.00 524.25 130.00 524.25 135.60 Z" stroke="#a0a0a0" stroke-width="2.0" fill="none"/><circle cx="648.2" cy="130.0" r="7.0" stroke="#a0a0a0" stroke-width="0.4" fill="#3939ff"/><circle cx="648.2" cy="112.0" r="7.0" stroke="#878665" stroke-width="1.25" fill="#878665" fill-opacity="0.25"/><circle cx="648.2" cy="96.0" r="7.0" stroke="#6946a2" stroke-width="1.25" fill="#6946a2" fill-opacity="0.25"/><circle cx="648.2" cy="148.0" r="7.0" stroke="#b1cba5" stroke-width="1.25" fill="#b1cba5" fill-opacity="0.25"/><path d="M 644.8 148.0 L 639.8 155.0 L 639.8 141.0 Z" stroke="none" fill="#0000ff" /><path d="M 633.50 135.60 L 633.50 156.40 C 633.50 162.00 633.50 162.00 639.10 162.00 L 657.40 162.00 C 663.00 162.00 663.00 162.00 663.00 156.40 L 663.00 135.60 C 663.00 130.00 663.00 130.00 663.00 124.40 L 663.00 87.60 C 663.00 82.00 663.00 82.00 657.40 82.00 L 639.10 82.00 C 633.50 82.00 633.50 82.00 633.50 87.60 L 633.50 124.40 C 633.50 130.00 633.50 130.00 633.50 135.60 Z" stroke="#a0a0a0" stroke-width="2.0" fill="none"/><circle cx="759.0" cy="130.0" r="7.0" stroke="#a0a0a0" stroke-width="0.4" fill="#3939ff"/><circle cx="759.0" cy="112.0" r="7.0" stroke="#666b81" stroke-width="1.25" fill="#666b81" fill-opacity="0.25"/><circle cx="759.0" cy="148.0" r="7.0" stroke="#878665" stroke-width="1.25" fill="#878665" fill-opacity="0.25"/><path d="M 745.00 135.60 L 745.00 156.40 C 745.00 162.00 745.00 162.00 750.60 162.00 L 767.40 162.00 C 773.00 162.00 773.00 162.00 773.00 156.40 L 773.00 135.60 C 773.00 130.00 773.00 130.00 773.00 124.40 L 773.00 103.60 C 773.00 98.00 773.00 98.00 767.40 98.00 L 750.60 98.00 C 745.00 98.00 745.00 98.00 745.00 103.60 L 745.00 124.40 C 745.00 130.00 745.00 130.00 745.00 135.60 Z" stroke="#a0a0a0" stroke-width="2.0" fill="none"/><circle cx="869.0" cy="130.0" r="7.0" stroke="#a0a0a0" stroke-width="0.4" fill="#3939ff"/><circle cx="869.0" cy="112.0" r="7.0" stroke="#c28357" stroke-width="1.25" fill="#c28357" fill-opacity="0.25"/><path d="M 872.5 112.0 L 877.5 119.0 L 877.5 105.0 Z" stroke="none" fill="#ff0000" /><circle cx="869.0" cy="148.0" r="7.0" stroke="#b1cba5" stroke-width="1.25" fill="#b1cba5" fill-opacity="0.25"/><path d="M 854.25 135.60 L 854.25 156.40 C 854.25 162.00 854.25 162.00 859.85 162.00 L 878.15 162.00 C 883.75 162.00 883.75 162.00 883.75 156.40 L 883.75 135.60 C 883.75 130.00 883.75 130.00 883.75 124.40 L 883.75 103.60 C 883.75 98.00 883.75 98.00 878.15 98.00 L 859.85 98.00 C 854.25 98.00 854.25 98.00 854.25 103.60 L 854.25 124.40 C 854.25 130.00 854.25 130.00 854.25 135.60 Z" stroke="#a0a0a0" stroke-width="2.0" fill="none"/><circle cx="979.8" cy="130.0" r="7.0" stroke="#a0a0a0" stroke-width="0.4" fill="#3939ff"/><circle cx="979.8" cy="112.0" r="7.0" stroke="#878665" stroke-width="1.25" fill="#878665" fill-opacity="0.25"/><path d="M 983.2 112.0 L 988.2 119.0 L 988.2 105.0 Z" stroke="none" fill="#ff0000" /><circle cx="979.8" cy="96.0" r="7.0" stroke="#546c89" stroke-width="1.25" fill="#546c89" fill-opacity="0.25"/><path d="M 983.2 96.0 L 988.2 103.0 L 988.2 89.0 Z" stroke="none" fill="#ff0000" /><circle cx="979.8" cy="148.0" r="7.0" stroke="#b1cba5" stroke-width="1.25" fill="#b1cba5" fill-opacity="0.25"/><path d="M 965.00 135.60 L 965.00 156.40 C 965.00 162.00 965.00 162.00 970.60 162.00 L 988.90 162.00 C 994.50 162.00 994.50 162.00 994.50 156.40 L 994.50 135.60 C 994.50 130.00 994.50 130.00 994.50 124.40 L 994.50 87.60 C 994.50 82.00 994.50 82.00 988.90 82.00 L 970.60 82.00 C 965.00 82.00 965.00 82.00 965.00 87.60 L 965.00 124.40 C 965.00 130.00 965.00 130.00 965.00 135.60 Z" stroke="#a0a0a0" stroke-width="2.0" fill="none"/><circle cx="1090.5" cy="130.0" r="7.0" stroke="#a0a0a0" stroke-width="0.4" fill="#3939ff"/><circle cx="1090.5" cy="112.0" r="7.0" stroke="#b1cba5" stroke-width="1.25" fill="#b1cba5" fill-opacity="0.25"/><path d="M 1094.0 112.0 L 1099.0 119.0 L 1099.0 105.0 Z" stroke="none" fill="#ff0000" /><circle cx="1090.5" cy="148.0" r="7.0" stroke="#6946a2" stroke-width="1.25" fill="#6946a2" fill-opacity="0.25"/><path d="M 1094.0 148.0 L 1099.0 155.0 L 1099.0 141.0 Z" stroke="none" fill="#ff0000" /><circle cx="1090.5" cy="164.0" r="7.0" stroke="#666b81" stroke-width="1.25" fill="#666b81" fill-opacity="0.25"/><path d="M 1094.0 164.0 L 1099.0 171.0 L 1099.0 157.0 Z" stroke="none" fill="#ff0000" /><path d="M 1075.75 135.60 L 1075.75 172.40 C 1075.75 178.00 1075.75 178.00 1081.35 178.00 L 1099.65 178.00 C 1105.25 178.00 1105.25 178.00 1105.25 172.40 L 1105.25 135.60 C 1105.25 130.00 1105.25 130.00 1105.25 124.40 L 1105.25 103.60 C 1105.25 98.00 1105.25 98.00 1099.65 98.00 L 1081.35 98.00 C 1075.75 98.00 1075.75 98.00 1075.75 103.60 L 1075.75 124.40 C 1075.75 130.00 1075.75 130.00 1075.75 135.60 Z" stroke="#a0a0a0" stroke-width="2.0" fill="none"/><path d="M 317.5 70.0 L 607.9 70.0 C 611.7 70.0 607.9 62.0 611.7 62.0 L 622.8 62.0 C 626.6 62.0 622.8 70.0 626.6 70.0 L 917.0 70.0 L 626.6 70.0 C 622.8 70.0 626.6 78.0 622.8 78.0 L 611.7 78.0 C 607.9 78.0 611.7 70.0 607.9 70.0 L 317.5 70.0" stroke="#a0a0a0" stroke-width="2.0" fill="#a0a0a0"/><text x="617.2" y="74.6" font-size="12px" text-anchor="middle" fill="#000000">2</text><path d="M 427.5 48.0 L 607.6 48.0 C 611.3 48.0 607.6 40.0 611.3 40.0 L 622.5 40.0 C 626.2 40.0 622.5 48.0 626.2 48.0 L 806.2 48.0 L 626.2 48.0 C 622.5 48.0 626.2 56.0 622.5 56.0 L 611.3 56.0 C 607.6 56.0 611.3 48.0 607.6 48.0 L 427.5 48.0" stroke="#a0a0a0" stroke-width="2.0" fill="#a0a0a0"/><text x="616.9" y="52.6" font-size="12px" text-anchor="middle" fill="#000000">1</text><path d="M 648.2 28.0 L 663.3 28.0 C 667.0 28.0 663.3 20.0 667.0 20.0 L 678.2 20.0 C 681.9 20.0 678.2 28.0 681.9 28.0 L 697.0 28.0 L 681.9 28.0 C 678.2 28.0 681.9 36.0 678.2 36.0 L 667.0 36.0 C 663.3 36.0 667.0 28.0 663.3 28.0 L 648.2 28.0" stroke="#a0a0a0" stroke-width="2.0" fill="#a0a0a0"/><text x="672.6" y="32.6" font-size="12px" text-anchor="middle" fill="#000000">1</text><path d="M 317.5 28.0 L 387.6 28.0 C 391.3 28.0 387.6 20.0 391.3 20.0 L 402.5 20.0 C 406.2 20.0 402.5 28.0 406.2 28.0 L 476.2 28.0 L 406.2 28.0 C 402.5 28.0 406.2 36.0 402.5 36.0 L 391.3 36.0 C 387.6 36.0 391.3 28.0 387.6 28.0 L 317.5 28.0" stroke="#a0a0a0" stroke-width="2.0" fill="#a0a0a0"/><text x="396.9" y="32.6" font-size="12px" text-anchor="middle" fill="#000000">1</text><path d="M 759.0 190.0 L 884.1 190.0 C 887.8 190.0 884.1 182.0 887.8 182.0 L 899.0 182.0 C 902.7 182.0 899.0 190.0 902.7 190.0 L 1027.8 190.0 L 902.7 190.0 C 899.0 190.0 902.7 198.0 899.0 198.0 L 887.8 198.0 C 884.1 198.0 887.8 190.0 884.1 190.0 L 759.0 190.0" stroke="#a0a0a0" stroke-width="2.0" fill="#a0a0a0"/><text x="893.4" y="194.6" font-size="12px" text-anchor="middle" fill="#000000">2</text><path d="M 759.0 212.0 L 773.3 212.0 C 777.0 212.0 773.3 204.0 777.0 204.0 L 788.2 204.0 C 791.9 204.0 788.2 212.0 791.9 212.0 L 806.2 212.0 L 791.9 212.0 C 788.2 212.0 791.9 220.0 788.2 220.0 L 777.0 220.0 C 773.3 220.0 777.0 212.0 773.3 212.0 L 759.0 212.0" stroke="#a0a0a0" stroke-width="2.0" fill="#a0a0a0"/><text x="782.6" y="216.6" font-size="12px" text-anchor="middle" fill="#000000">1</text><path d="M 206.8 188.0 L 332.2 188.0 C 335.9 188.0 332.2 180.0 335.9 180.0 L 347.1 180.0 C 350.8 180.0 347.1 188.0 350.8 188.0 L 476.2 188.0 L 350.8 188.0 C 347.1 188.0 350.8 196.0 347.1 196.0 L 335.9 196.0 C 332.2 196.0 335.9 188.0 332.2 188.0 L 206.8 188.0" stroke="#a0a0a0" stroke-width="2.0" fill="#a0a0a0"/><text x="341.5" y="192.6" font-size="12px" text-anchor="middle" fill="#000000">1</text><path d="M 206.8 208.0 L 276.4 208.0 C 280.2 208.0 276.4 200.0 280.2 200.0 L 291.3 200.0 C 295.1 200.0 291.3 208.0 295.1 208.0 L 364.8 208.0 L 295.1 208.0 C 291.3 208.0 295.1 216.0 291.3 216.0 L 280.2 216.0 C 276.4 216.0 280.2 208.0 276.4 208.0 L 206.8 208.0" stroke="#a0a0a0" stroke-width="2.0" fill="#a0a0a0"/><text x="285.8" y="212.6" font-size="12px" text-anchor="middle" fill="#000000">1</text><text x="96.0" y="230.0" font-size="12px" text-anchor="middle" fill="#000000">2026-04-06</text><text x="206.8" y="230.0" font-size="12px" text-anchor="middle" fill="#000000">2026-04-07</text><text x="317.5" y="230.0" font-size="12px" text-anchor="middle" fill="#000000">2026-04-08</text><text x="427.5" y="230.0" font-size="12px" text-anchor="middle" fill="#000000">2026-04-09</text><text x="538.2" y="230.0" font-size="12px" text-anchor="middle" fill="#000000">2026-04-10</text><text x="648.2" y="230.0" font-size="12px" text-anchor="middle" fill="#000000">2026-04-11</text><text x="759.0" y="230.0" font-size="12px" text-anchor="middle" fill="#000000">2026-04-12</text><text x="869.0" y="230.0" font-size="12px" text-anchor="middle" fill="#000000">2026-04-13</text><text x="979.8" y="230.0" font-size="12px" text-anchor="middle" fill="#000000">2026-04-14</text><text x="1090.5" y="230.0" font-size="12px" text-anchor="middle" fill="#000000">2026-04-15</text><rect x="49.2" y="10.0" width="1087.0" height="231.0" fill="none" stroke="#a0a0a0" stroke-width="1"/></svg>