<svg id="timep_13858867" x="0" y="0" width="420" height="200" xmlns="http://www.w3.org/2000/svg"><rect x="0" y="0" width="420" height="200" fill="#ffffff" /><line x1="21.2" y1="2.0" x2="21.2" y2="7.0" stroke="#a0a0a0" stroke-width="0.3" /><line x1="28.4" y1="2.0" x2="28.4" y2="7.0" stroke="#a0a0a0" stroke-width="0.3" /><line x1="35.6" y1="2.0" x2="35.6" y2="7.0" stroke="#a0a0a0" stroke-width="0.3" /><line x1="42.9" y1="2.0" x2="42.9" y2="7.0" stroke="#a0a0a0" stroke-width="0.3" /><line x1="50.1" y1="2.0" x2="50.1" y2="7.0" stroke="#a0a0a0" stroke-width="0.3" /><line x1="57.3" y1="2.0" x2="57.3" y2="7.0" stroke="#a0a0a0" stroke-width="0.3" /><line x1="64.5" y1="2.0" x2="64.5" y2="7.0" stroke="#a0a0a0" stroke-width="0.3" /><line x1="71.7" y1="2.0" x2="71.7" y2="7.0" stroke="#a0a0a0" stroke-width="0.3" /><line x1="78.9" y1="2.0" x2="78.9" y2="7.0" stroke="#a0a0a0" stroke-width="0.3" /><line x1="86.1" y1="2.0" x2="86.1" y2="7.0" stroke="#a0a0a0" stroke-width="0.3" /><line x1="93.4" y1="2.0" x2="93.4" y2="7.0" stroke="#a0a0a0" stroke-width="0.3" /><line x1="100.6" y1="2.0" x2="100.6" y2="7.0" stroke="#a0a0a0" stroke-width="0.3" /><line x1="107.8" y1="2.0" x2="107.8" y2="7.0" stroke="#a0a0a0" stroke-width="0.3" /><line x1="115.0" y1="2.0" x2="115.0" y2="7.0" stroke="#a0a0a0" stroke-width="0.3" /><line x1="122.2" y1="2.0" x2="122.2" y2="7.0" stroke="#a0a0a0" stroke-width="0.3" /><line x1="129.4" y1="2.0" x2="129.4" y2="7.0" stroke="#a0a0a0" stroke-width="0.3" /><line x1="136.6" y1="2.0" x2="136.6" y2="7.0" stroke="#a0a0a0" stroke-width="0.3" /><line x1="143.9" y1="2.0" x2="143.9" y2="7.0" stroke="#a0a0a0" stroke-width="0.3" /><line x1="151.1" y1="2.0" x2="151.1" y2="7.0" stroke="#a0a0a0" stroke-width="0.3" /><line x1="158.3" y1="2.0" x2="158.3" y2="7.0" stroke="#a0a0a0" stroke-width="0.3" /><line x1="165.5" y1="2.0" x2="165.5" y2="7.0" stroke="#a0a0a0" stroke-width="0.3" /><line x1="172.7" y1="2.0" x2="172.7" y2="7.0" stroke="#a0a0a0" stroke-width="0.3" /><line x1="179.9" y1="2.0" x2="179.9" y2="7.0" stroke="#a0a0a0" stroke-width="0.3" /><line x1="187.1" y1="2.0" x2="187.1" y2="7.0" stroke="#a0a0a0" stroke-width="0.3" /><line x1="194.4" y1="2.0" x2="194.4" y2="7.0" stroke="#a0a0a0" stroke-width="0.3" /><line x1="201.6" y1="2.0" x2="201.6" y2="7.0" stroke="#a0a0a0" stroke-width="0.3" /><line x1="208.8" y1="2.0" x2="208.8" y2="7.0" stroke="#a0a0a0" stroke-width="0.3" /><line x1="216.0" y1="2.0" x2="216.0" y2="7.0" stroke="#a0a0a0" stroke-width="0.3" /><line x1="223.2" y1="2.0" x2="223.2" y2="7.0" stroke="#a0a0a0" stroke-width="0.3" /><line x1="230.4" y1="2.0" x2="230.4" y2="182.0" stroke="#a0a0a0" stroke-width="0.5" /><text x="232.43" text-anchor="start" y="11.0" font-family="'Noto Sans', sans-serif" fill="#a0a0a0" font-size="9.0px">Apr</text><line x1="237.6" y1="2.0" x2="237.6" y2="7.0" stroke="#a0a0a0" stroke-width="0.3" /><line x1="244.9" y1="2.0" x2="244.9" y2="7.0" stroke="#a0a0a0" stroke-width="0.3" /><line x1="252.1" y1="2.0" x2="252.1" y2="7.0" stroke="#a0a0a0" stroke-width="0.3" /><line x1="259.3" y1="2.0" x2="259.3" y2="7.0" stroke="#a0a0a0" stroke-width="0.3" /><line x1="266.5" y1="2.0" x2="266.5" y2="7.0" stroke="#a0a0a0" stroke-width="0.3" /><line x1="273.7" y1="2.0" x2="273.7" y2="7.0" stroke="#a0a0a0" stroke-width="0.3" /><line x1="280.9" y1="2.0" x2="280.9" y2="7.0" stroke="#a0a0a0" stroke-width="0.3" /><line x1="288.1" y1="2.0" x2="288.1" y2="7.0" stroke="#a0a0a0" stroke-width="0.3" /><line x1="295.4" y1="2.0" x2="295.4" y2="7.0" stroke="#a0a0a0" stroke-width="0.3" /><line x1="302.6" y1="2.0" x2="302.6" y2="7.0" stroke="#a0a0a0" stroke-width="0.3" /><line x1="309.8" y1="2.0" x2="309.8" y2="7.0" stroke="#a0a0a0" stroke-width="0.3" /><line x1="317.0" y1="2.0" x2="317.0" y2="7.0" stroke="#a0a0a0" stroke-width="0.3" /><line x1="324.2" y1="2.0" x2="324.2" y2="7.0" stroke="#a0a0a0" stroke-width="0.3" /><line x1="331.4" y1="2.0" x2="331.4" y2="7.0" stroke="#a0a0a0" stroke-width="0.3" /><line x1="338.6" y1="2.0" x2="338.6" y2="7.0" stroke="#a0a0a0" stroke-width="0.3" /><line x1="345.9" y1="2.0" x2="345.9" y2="7.0" stroke="#a0a0a0" stroke-width="0.3" /><line x1="353.1" y1="2.0" x2="353.1" y2="7.0" stroke="#a0a0a0" stroke-width="0.3" /><line x1="360.3" y1="2.0" x2="360.3" y2="7.0" stroke="#a0a0a0" stroke-width="0.3" /><line x1="367.5" y1="2.0" x2="367.5" y2="7.0" stroke="#a0a0a0" stroke-width="0.3" /><line x1="374.7" y1="2.0" x2="374.7" y2="7.0" stroke="#a0a0a0" stroke-width="0.3" /><line x1="381.9" y1="2.0" x2="381.9" y2="7.0" stroke="#a0a0a0" stroke-width="0.3" /><line x1="389.1" y1="2.0" x2="389.1" y2="7.0" stroke="#a0a0a0" stroke-width="0.3" /><line x1="396.4" y1="2.0" x2="396.4" y2="7.0" stroke="#a0a0a0" stroke-width="0.3" /><line x1="403.6" y1="2.0" x2="403.6" y2="7.0" stroke="#a0a0a0" stroke-width="0.3" /><line x1="410.8" y1="2.0" x2="410.8" y2="7.0" stroke="#a0a0a0" stroke-width="0.3" /><rect x="14.0" y="122.0" width="6.2" height="60.0" fill="#3939ff" /><rect x="21.2" y="129.5" width="6.2" height="52.5" fill="#3939ff" /><rect x="35.6" y="84.5" width="6.2" height="97.5" fill="#3939ff" /><rect x="42.9" y="129.5" width="6.2" height="52.5" fill="#3939ff" /><rect x="50.1" y="144.5" width="6.2" height="37.5" fill="#3939ff" /><rect x="57.3" y="167.0" width="6.2" height="15.0" fill="#3939ff" /><rect x="64.5" y="54.5" width="6.2" height="127.5" fill="#3939ff" /><rect x="71.7" y="122.0" width="6.2" height="60.0" fill="#3939ff" /><rect x="78.9" y="137.0" width="6.2" height="45.0" fill="#3939ff" /><rect x="86.1" y="77.0" width="6.2" height="105.0" fill="#3939ff" /><rect x="93.4" y="2.0" width="6.2" height="180.0" fill="#3939ff" /><rect x="100.6" y="167.0" width="6.2" height="15.0" fill="#3939ff" /><rect x="115.0" y="129.5" width="6.2" height="52.5" fill="#3939ff" /><rect x="122.2" y="174.5" width="6.2" height="7.5" fill="#3939ff" /><rect x="129.4" y="107.0" width="6.2" height="75.0" fill="#3939ff" /><rect x="136.6" y="47.0" width="6.2" height="135.0" fill="#3939ff" /><rect x="143.9" y="137.0" width="6.2" height="45.0" fill="#3939ff" /><rect x="151.1" y="152.0" width="6.2" height="30.0" fill="#3939ff" /><rect x="158.3" y="159.5" width="6.2" height="22.5" fill="#3939ff" /><rect x="165.5" y="129.5" width="6.2" height="52.5" fill="#3939ff" /><rect x="172.7" y="174.5" width="6.2" height="7.5" fill="#3939ff" /><rect x="179.9" y="92.0" width="6.2" height="90.0" fill="#3939ff" /><rect x="187.1" y="92.0" width="6.2" height="90.0" fill="#3939ff" /><rect x="194.4" y="114.5" width="6.2" height="67.5" fill="#3939ff" /><rect x="201.6" y="129.5" width="6.2" height="52.5" fill="#3939ff" /><rect x="208.8" y="167.0" width="6.2" height="15.0" fill="#3939ff" /><rect x="216.0" y="107.0" width="6.2" height="75.0" fill="#3939ff" /><rect x="223.2" y="167.0" width="6.2" height="15.0" fill="#3939ff" /><rect x="230.4" y="137.0" width="6.2" height="45.0" fill="#3939ff" /><rect x="237.6" y="137.0" width="6.2" height="45.0" fill="#3939ff" /><rect x="244.9" y="159.5" width="6.2" height="22.5" fill="#3939ff" /><rect x="252.1" y="144.5" width="6.2" height="37.5" fill="#3939ff" /><rect x="259.3" y="167.0" width="6.2" height="15.0" fill="#3939ff" /><rect x="266.5" y="99.5" width="6.2" height="82.5" fill="#3939ff" /><rect x="273.7" y="144.5" width="6.2" height="37.5" fill="#3939ff" /><rect x="280.9" y="159.5" width="6.2" height="22.5" fill="#3939ff" /><rect x="288.1" y="92.0" width="6.2" height="90.0" fill="#3939ff" /><rect x="295.4" y="122.0" width="6.2" height="60.0" fill="#3939ff" /><rect x="302.6" y="152.0" width="6.2" height="30.0" fill="#3939ff" /><rect x="309.8" y="159.5" width="6.2" height="22.5" fill="#3939ff" /><rect x="317.0" y="137.0" width="6.2" height="45.0" fill="#3939ff" /><rect x="324.2" y="152.0" width="6.2" height="30.0" fill="#3939ff" /><rect x="331.4" y="114.5" width="6.2" height="67.5" fill="#3939ff" /><rect x="345.9" y="54.5" width="6.2" height="127.5" fill="#3939ff" /><rect x="353.1" y="144.5" width="6.2" height="37.5" fill="#3939ff" /><rect x="360.3" y="137.0" width="6.2" height="45.0" fill="#3939ff" /><rect x="367.5" y="84.5" width="6.2" height="97.5" fill="#3939ff" /><rect x="374.7" y="114.5" width="6.2" height="67.5" fill="#3939ff" /><rect x="381.9" y="152.0" width="6.2" height="30.0" fill="#3939ff" /><rect x="389.1" y="99.5" width="6.2" height="82.5" fill="#3939ff" /><rect x="396.4" y="107.0" width="6.2" height="75.0" fill="#3939ff" /><rect x="403.6" y="137.0" width="6.2" height="45.0" fill="#3939ff" /><rect x="410.8" y="152.0" width="6.2" height="30.0" fill="#3939ff" /><rect x="14" y="2" width="404" height="180" stroke="#a0a0a0" fill="none" stroke-width="0.5" /><text x="12" text-anchor="end" y="2" font-family="'Noto Sans', sans-serif" fill="#000000" font-size="9.6px" transform="rotate(270,12,2)">24</text><text x="12" text-anchor="start" y="182" font-family="'Noto Sans', sans-serif" fill="#000000" font-size="9.6px" transform="rotate(270,12,182)">0</text><text x="14" text-anchor="start" y="196" font-family="'Noto Sans', sans-serif" fill="#000000" font-size="9.6px">2026-03-02</text><text x="216.0" text-anchor="middle" y="196" font-family="'Noto Sans', sans-serif" fill="#000000" font-size="9.6px">daily</text><text x="418" text-anchor="end" y="196" font-family="'Noto Sans', sans-serif" fill="#000000" font-size="9.6px">2026-04-26</text></svg>