<svg id="timep_2286562040" x="0" y="0" width="420" height="200" xmlns="http://www.w3.org/2000/svg"><rect x="0" y="0" width="420" height="200" fill="#ffffff" /><line x1="71.7" y1="2.0" x2="71.7" y2="182.0" stroke="#a0a0a0" stroke-width="0.5" /><text x="73.71" text-anchor="start" y="11.0" font-family="'Noto Sans', sans-serif" fill="#a0a0a0" font-size="9.0px">tue</text><line x1="129.4" y1="2.0" x2="129.4" y2="182.0" stroke="#a0a0a0" stroke-width="0.5" /><text x="131.43" text-anchor="start" y="11.0" font-family="'Noto Sans', sans-serif" fill="#a0a0a0" font-size="9.0px">wed</text><line x1="187.1" y1="2.0" x2="187.1" y2="182.0" stroke="#a0a0a0" stroke-width="0.5" /><text x="189.14" text-anchor="start" y="11.0" font-family="'Noto Sans', sans-serif" fill="#a0a0a0" font-size="9.0px">thu</text><line x1="244.9" y1="2.0" x2="244.9" y2="182.0" stroke="#a0a0a0" stroke-width="0.5" /><text x="246.86" text-anchor="start" y="11.0" font-family="'Noto Sans', sans-serif" fill="#a0a0a0" font-size="9.0px">fri</text><line x1="302.6" y1="2.0" x2="302.6" y2="182.0" stroke="#a0a0a0" stroke-width="0.5" /><text x="304.57" text-anchor="start" y="11.0" font-family="'Noto Sans', sans-serif" fill="#a0a0a0" font-size="9.0px">sat</text><line x1="360.3" y1="2.0" x2="360.3" y2="182.0" stroke="#a0a0a0" stroke-width="0.5" /><text x="362.29" text-anchor="start" y="11.0" font-family="'Noto Sans', sans-serif" fill="#a0a0a0" font-size="9.0px">sun</text><rect x="14.0" y="16.7" width="56.7" height="165.3" fill="#3939ff" /><rect x="71.7" y="104.6" width="56.7" height="77.4" fill="#3939ff" /><rect x="129.4" y="77.3" width="56.7" height="104.7" fill="#3939ff" /><rect x="187.1" y="2.0" width="56.7" height="180.0" fill="#3939ff" /><rect x="244.9" y="6.2" width="56.7" height="175.8" fill="#3939ff" /><rect x="302.6" y="102.5" width="56.7" height="79.5" fill="#3939ff" /><rect x="360.3" y="136.0" width="56.7" height="46.0" fill="#3939ff" /><rect x="14" y="2" width="404" height="180" stroke="#a0a0a0" fill="none" stroke-width="0.5" /><text x="12" text-anchor="end" y="2" font-family="'Noto Sans', sans-serif" fill="#000000" font-size="9.6px" transform="rotate(270,12,2)">86</text><text x="12" text-anchor="start" y="182" font-family="'Noto Sans', sans-serif" fill="#000000" font-size="9.6px" transform="rotate(270,12,182)">0</text><text x="14" text-anchor="start" y="196" font-family="'Noto Sans', sans-serif" fill="#000000" font-size="9.6px">mon</text><text x="216.0" text-anchor="middle" y="196" font-family="'Noto Sans', sans-serif" fill="#000000" font-size="9.6px">day of week</text><text x="418" text-anchor="end" y="196" font-family="'Noto Sans', sans-serif" fill="#000000" font-size="9.6px">sun</text></svg>