<svg id="xyp_1969975945" x="0" y="0" width="400" height="300" xmlns="http://www.w3.org/2000/svg">
                        <defs>
                               <clipPath id="plotClip-1969975945">
                                 <rect x="13" y="1" width="322" height="282" />
                               </clipPath>
                             </defs>
                        <style> .rect-group-1969975945 rect { width: 5px; height: 5px; } </style>
                        <rect x="0" y="0" width="400" height="300" fill="#ffffff" stroke="#ffffff" />
                        <text x="14" text-anchor="start" y="294" font-family="'Noto Sans', sans-serif" fill="#0015D2" font-size="12px">-2.52</text><text x="175.52" text-anchor="middle" y="294" font-family="'Noto Sans', sans-serif" fill="#404040" font-size="12px">x</text><text x="334" text-anchor="end" y="294" font-family="'Noto Sans', sans-serif" fill="#A10000" font-size="12px">1.72</text><text x="12" text-anchor="start" y="282" font-family="'Noto Sans', sans-serif" fill="#0015D2" font-size="12px" transform="rotate(270,12,282)">-2.73</text><text x="12" text-anchor="middle" y="140.48" font-family="'Noto Sans', sans-serif" fill="#404040" font-size="12px" transform="rotate(270,12,140.48)">y</text><text x="12" text-anchor="end" y="2" font-family="'Noto Sans', sans-serif" fill="#A10000" font-size="12px" transform="rotate(270,12,2)">2.75</text><line x1="204.2" y1="2" x2="204.2" y2="282" stroke="#404040" stroke-width="0.6" /><text x="204.2" text-anchor="start" y="2" font-family="'Noto Sans', sans-serif" fill="#a0a0a0" font-size="7.2px" transform="rotate(90,204.2,2)">0.0</text><line x1="279.8" y1="2" x2="279.8" y2="282" stroke="#a0a0a0" stroke-width="0.4" /><text x="279.8" text-anchor="start" y="2" font-family="'Noto Sans', sans-serif" fill="#a0a0a0" font-size="7.2px" transform="rotate(90,279.8,2)">1</text><line x1="128.7" y1="2" x2="128.7" y2="282" stroke="#a0a0a0" stroke-width="0.4" /><text x="128.7" text-anchor="start" y="2" font-family="'Noto Sans', sans-serif" fill="#a0a0a0" font-size="7.2px" transform="rotate(90,128.7,2)">-1</text><line x1="53.2" y1="2" x2="53.2" y2="282" stroke="#a0a0a0" stroke-width="0.4" /><text x="53.2" text-anchor="start" y="2" font-family="'Noto Sans', sans-serif" fill="#a0a0a0" font-size="7.2px" transform="rotate(90,53.2,2)">-2</text><line x1="14" y1="142.4" x2="334" y2="142.4" stroke="#404040" stroke-width="0.6" /><text x="14" text-anchor="start" y="142.4" font-family="'Noto Sans', sans-serif" fill="#a0a0a0" font-size="7.2px">0.0</text><line x1="14" y1="40.1" x2="334" y2="40.1" stroke="#a0a0a0" stroke-width="0.4" /><text x="14" text-anchor="start" y="40.1" font-family="'Noto Sans', sans-serif" fill="#a0a0a0" font-size="7.2px">2</text><line x1="14" y1="244.8" x2="334" y2="244.8" stroke="#a0a0a0" stroke-width="0.4" /><text x="14" text-anchor="start" y="244.8" font-family="'Noto Sans', sans-serif" fill="#a0a0a0" font-size="7.2px">-2</text><rect x="14" y="2" width="320" height="280" stroke="#a0a0a0" fill="none" stroke-width="0.25" />  <g class="rect-group-1969975945" stroke="none" fill="#3939ff"><rect x="179" y="97" fill="#a2c2b0" /><rect x="299" y="2" fill="#e38c4a" /><rect x="144" y="217" fill="#7d1dc3" /><rect x="239" y="107" fill="#e38c4a" /><rect x="274" y="217" fill="#e38c4a" /><rect x="324" y="67" fill="#a2c2b0" /><rect x="194" y="97" fill="#7d1dc3" /><rect x="279" y="172" fill="#7d1dc3" /><rect x="324" y="117" fill="#e38c4a" /><rect x="234" y="112" fill="#7f8367" /><rect x="244" y="62" fill="#7f8367" /><rect x="139" y="87" fill="#a2c2b0" /><rect x="199" y="122" fill="#e38c4a" /><rect x="234" y="142" fill="#a2c2b0" /><rect x="94" y="92" fill="#7d1dc3" /><rect x="174" y="17" fill="#7d1dc3" /><rect x="99" y="237" fill="#7d1dc3" /><rect x="209" y="147" fill="#e38c4a" /><rect x="129" y="87" fill="#e38c4a" /><rect x="294" y="167" fill="#e38c4a" /><rect x="254" y="107" fill="#e38c4a" /><rect x="264" y="242" fill="#a2c2b0" /><rect x="139" y="107" fill="#a2c2b0" /><rect x="249" y="97" fill="#7d1dc3" /><rect x="219" y="152" fill="#e38c4a" /><rect x="154" y="147" fill="#7d1dc3" /><rect x="184" y="182" fill="#7d1dc3" /><rect x="239" y="82" fill="#a2c2b0" /><rect x="14" y="107" fill="#7d1dc3" /><rect x="199" y="277" fill="#7d1dc3" /><rect x="134" y="67" fill="#7d1dc3" /><rect x="189" y="147" fill="#a2c2b0" /><rect x="169" y="162" fill="#a2c2b0" /><rect x="154" y="127" fill="#e38c4a" /><rect x="309" y="132" fill="#7f8367" /><rect x="239" y="142" fill="#e38c4a" /><rect x="169" y="152" fill="#e38c4a" /><rect x="164" y="92" fill="#7d1dc3" /><rect x="289" y="147" fill="#a2c2b0" /><rect x="49" y="197" fill="#e38c4a" /><rect x="219" y="202" fill="#a2c2b0" /><rect x="309" y="142" fill="#7d1dc3" /><rect x="89" y="92" fill="#7d1dc3" /><rect x="299" y="137" fill="#7d1dc3" /><rect x="154" y="272" fill="#a2c2b0" /><rect x="64" y="67" fill="#7d1dc3" /><rect x="69" y="157" fill="#e38c4a" /><rect x="204" y="132" fill="#e38c4a" /><rect x="104" y="117" fill="#a2c2b0" /><rect x="154" y="177" fill="#a2c2b0" /><rect x="144" y="167" fill="#a2c2b0" /><rect x="274" y="152" fill="#7d1dc3" /><rect x="214" y="142" fill="#7d1dc3" /><rect x="249" y="167" fill="#e38c4a" /><rect x="164" y="277" fill="#a2c2b0" /><rect x="239" y="37" fill="#e38c4a" /><rect x="104" y="72" fill="#e38c4a" /><rect x="134" y="142" fill="#a2c2b0" /><rect x="284" y="132" fill="#7d1dc3" /><rect x="119" y="107" fill="#7d1dc3" /><rect x="249" y="62" fill="#a2c2b0" /><rect x="89" y="82" fill="#7d1dc3" /><rect x="239" y="47" fill="#a2c2b0" /><rect x="279" y="147" fill="#e38c4a" /><rect x="189" y="192" fill="#7d1dc3" /><rect x="184" y="82" fill="#7d1dc3" /><rect x="244" y="102" fill="#7d1dc3" /><rect x="164" y="157" fill="#a2c2b0" /><rect x="179" y="172" fill="#e38c4a" /><rect x="104" y="132" fill="#7d1dc3" /><rect x="74" y="162" fill="#e38c4a" /><rect x="104" y="62" fill="#7d1dc3" /><rect x="264" y="112" fill="#a2c2b0" /><rect x="59" y="127" fill="#a2c2b0" /><rect x="239" y="122" fill="#a2c2b0" /><rect x="74" y="102" fill="#e38c4a" /><rect x="224" y="197" fill="#a2c2b0" /><rect x="84" y="102" fill="#a2c2b0" /><rect x="274" y="187" fill="#7f8367" /><rect x="244" y="162" fill="#e38c4a" /><rect x="244" y="197" fill="#7d1dc3" /><rect x="54" y="87" fill="#e38c4a" /><rect x="299" y="57" fill="#a2c2b0" /><rect x="294" y="107" fill="#a2c2b0" /><rect x="229" y="77" fill="#a2c2b0" /><rect x="329" y="127" fill="#e38c4a" /><rect x="194" y="122" fill="#e38c4a" /><rect x="184" y="132" fill="#e38c4a" /><rect x="219" y="147" fill="#e38c4a" /><rect x="204" y="97" fill="#a2c2b0" /><rect x="279" y="132" fill="#7d1dc3" /><rect x="49" y="227" fill="#e38c4a" /><rect x="314" y="257" fill="#7d1dc3" /><rect x="179" y="157" fill="#7d1dc3" /><rect x="224" y="157" fill="#a2c2b0" /><rect x="219" y="127" fill="#e38c4a" /><rect x="169" y="142" fill="#e38c4a" /><rect x="229" y="217" fill="#a2c2b0" /><rect x="214" y="217" fill="#e38c4a" /><rect x="129" y="142" fill="#7d1dc3" /><rect x="169" y="87" fill="#e38c4a" /><rect x="264" y="212" fill="#e38c4a" /><rect x="154" y="122" fill="#7d1dc3" /><rect x="154" y="132" fill="#e38c4a" /><rect x="224" y="82" fill="#7d1dc3" /><rect x="284" y="192" fill="#a2c2b0" /><rect x="124" y="97" fill="#a2c2b0" /><rect x="194" y="157" fill="#e38c4a" /><rect x="234" y="102" fill="#7d1dc3" /><rect x="129" y="122" fill="#a2c2b0" /><rect x="189" y="122" fill="#a2c2b0" /><rect x="219" y="77" fill="#a2c2b0" /><rect x="209" y="67" fill="#e38c4a" /><rect x="249" y="187" fill="#a2c2b0" /><rect x="299" y="62" fill="#a2c2b0" /><rect x="234" y="127" fill="#a2c2b0" /></g>  <text x="341.0" text-anchor="start" y="13.0" font-family="'Noto Sans', sans-serif" fill="#000000" font-size="12.0px">group</text><rect x="341.00" y="20.00" width="8.00" height="8.00" fill="#e38c4a" /><text x="352.0" text-anchor="start" y="27.0" font-family="'Noto Sans', sans-serif" fill="#000000" font-size="12.0px">gamma</text><rect x="341.00" y="34.00" width="8.00" height="8.00" fill="#a2c2b0" /><text x="352.0" text-anchor="start" y="41.0" font-family="'Noto Sans', sans-serif" fill="#000000" font-size="12.0px">alpha</text><rect x="341.00" y="48.00" width="8.00" height="8.00" fill="#7d1dc3" /><text x="352.0" text-anchor="start" y="55.0" font-family="'Noto Sans', sans-serif" fill="#000000" font-size="12.0px">beta</text></svg>