<svg id="xyp_TESTID" x="0" y="0" width="200" height="200" xmlns="http://www.w3.org/2000/svg">
                        <defs>
                               <clipPath id="plotClip-TESTID">
                                 <rect x="13" y="1" width="186" height="186" />
                               </clipPath>
                             </defs>
                        <style> .rect-group-TESTID rect { width: 1px; height: 1px; } </style>
                        <rect x="0" y="0" width="200" height="200" fill="#ffffff" stroke="#ffffff" />
                        <text x="14" text-anchor="start" y="198" font-family="'Noto Sans', sans-serif" fill="#0015D2" font-size="12px">1.0</text><text x="105.94" text-anchor="middle" y="198" font-family="'Noto Sans', sans-serif" fill="#404040" font-size="12px">x</text><text x="198" text-anchor="end" y="198" font-family="'Noto Sans', sans-serif" fill="#A10000" font-size="12px">6.0</text><text x="12" text-anchor="start" y="186" font-family="'Noto Sans', sans-serif" fill="#0015D2" font-size="12px" transform="rotate(270,12,186)">1.0</text><text x="12" text-anchor="middle" y="94.06" font-family="'Noto Sans', sans-serif" fill="#404040" font-size="12px" transform="rotate(270,12,94.06)">y</text><text x="12" text-anchor="end" y="2" font-family="'Noto Sans', sans-serif" fill="#A10000" font-size="12px" transform="rotate(270,12,2)">9.0</text><line x1="50.8" y1="2" x2="50.8" y2="186" stroke="#a0a0a0" stroke-width="0.4" /><text x="50.8" text-anchor="start" y="2" font-family="'Noto Sans', sans-serif" fill="#a0a0a0" font-size="7.2px" transform="rotate(90,50.8,2)">2</text><line x1="124.4" y1="2" x2="124.4" y2="186" stroke="#a0a0a0" stroke-width="0.4" /><text x="124.4" text-anchor="start" y="2" font-family="'Noto Sans', sans-serif" fill="#a0a0a0" font-size="7.2px" transform="rotate(90,124.4,2)">4</text><line x1="14" y1="94.0" x2="198" y2="94.0" stroke="#a0a0a0" stroke-width="0.4" /><text x="14" text-anchor="start" y="94.0" font-family="'Noto Sans', sans-serif" fill="#a0a0a0" font-size="7.2px">5</text><rect x="14" y="2" width="184" height="184" stroke="#a0a0a0" fill="none" stroke-width="0.25" />  <g class="rect-group-TESTID" stroke="none" fill="#3939ff"><rect x="124" y="185" /><rect x="14" y="139" /><rect x="161" y="93" /><rect x="197" y="2" /><rect x="50" y="185" /><rect x="87" y="116" /></g>  </svg>