<svg id="histop_TESTID" x="0" y="0" width="256" height="192" font-family="'Noto Sans', sans-serif" xmlns="http://www.w3.org/2000/svg"><rect x="0" y="0" width="256" height="192" fill="#121212" /><line x1="61.5" y1="16.0" x2="61.5" y2="80.0" stroke="#575757" stroke-width="0.5" /><line x1="121.0" y1="16.0" x2="121.0" y2="80.0" stroke="#575757" stroke-width="0.5" /><line x1="180.5" y1="16.0" x2="180.5" y2="80.0" stroke="#575757" stroke-width="0.5" /><line x1="240.0" y1="16.0" x2="240.0" y2="80.0" stroke="#575757" stroke-width="0.5" /><rect x="2.0" y="16.0" width="238.0" height="16.0" fill="#6e6eff" stroke="none" /><rect x="2.0" y="32.0" width="171.1" height="16.0" fill="#6e6eff" stroke="none" /><rect x="2.0" y="48.0" width="119.0" height="16.0" fill="#6e6eff" stroke="none" /><rect x="2.0" y="64.0" width="66.9" height="16.0" fill="#6e6eff" stroke="none" /><text x="4" text-anchor="start" y="30" font-family="'Noto Sans', sans-serif" fill="#e6e6e6" font-size="12px">alpha</text><text x="4" text-anchor="start" y="46" font-family="'Noto Sans', sans-serif" fill="#e6e6e6" font-size="12px">beta</text><text x="4" text-anchor="start" y="62" font-family="'Noto Sans', sans-serif" fill="#e6e6e6" font-size="12px">gamma</text><text x="4" text-anchor="start" y="78" font-family="'Noto Sans', sans-serif" fill="#e6e6e6" font-size="12px">delta</text><rect x="2.0" y="16.0" width="238.0" height="64.0" stroke="#575757" fill="none" stroke-width="0.5" /><text x="2" text-anchor="start" y="15" font-family="'Noto Sans', sans-serif" fill="#e6e6e6" font-size="9.600000000000001px">0</text><text x="121.0" text-anchor="middle" y="15" font-family="'Noto Sans', sans-serif" fill="#e6e6e6" font-size="9.600000000000001px">val</text><text x="240" text-anchor="end" y="15" font-family="'Noto Sans', sans-serif" fill="#e6e6e6" font-size="9.600000000000001px">32</text><text x="242.2" text-anchor="middle" y="96.0" font-family="'Noto Sans', sans-serif" fill="#e6e6e6" font-size="9.600000000000001px" transform="rotate(90,242.2,96.0)">bin</text><rect x="62.5" y="181.0" width="7.9" height="8.0" fill="#333333" stroke="none" /><rect x="122.0" y="181.0" width="7.9" height="8.0" fill="#333333" stroke="none" /><rect x="171.6" y="181.0" width="7.9" height="8.0" fill="#333333" stroke="none" /><rect x="231.1" y="181.0" width="7.9" height="8.0" fill="#333333" stroke="none" /><rect x="0" y="0" width="255" height="191" fill="none" stroke="#575757" stroke-width="1" /></svg>