<svg id="xyp_TESTID" x="0" y="0" width="200" height="200" xmlns="http://www.w3.org/2000/svg">
                        <defs>
                               <clipPath id="plotClip-TESTID">
                                 <rect x="13" y="37" width="150" height="150" />
                               </clipPath>
                             </defs>
                        <style> .rect-group-TESTID rect { width: 1px; height: 1px; } </style>
                        <rect x="0" y="0" width="200" height="200" fill="#ffffff" stroke="#ffffff" />
                        <text x="14" text-anchor="start" y="198" font-family="'Noto Sans', sans-serif" fill="#0015D2" font-size="12px">1.0</text><text x="87.944" text-anchor="middle" y="198" font-family="'Noto Sans', sans-serif" fill="#404040" font-size="12px">x</text><text x="162" text-anchor="end" y="198" font-family="'Noto Sans', sans-serif" fill="#A10000" font-size="12px">5.0</text><text x="12" text-anchor="start" y="186" font-family="'Noto Sans', sans-serif" fill="#0015D2" font-size="12px" transform="rotate(270,12,186)">1.0</text><text x="12" text-anchor="middle" y="112.05600000000001" font-family="'Noto Sans', sans-serif" fill="#404040" font-size="12px" transform="rotate(270,12,112.05600000000001)">y</text><text x="12" text-anchor="end" y="38" font-family="'Noto Sans', sans-serif" fill="#A10000" font-size="12px" transform="rotate(270,12,38)">5.0</text><rect x="14" y="38" width="148" height="148" stroke="#a0a0a0" fill="none" stroke-width="0.25" />  <g class="rect-group-TESTID" stroke="none" fill="#3939ff"><rect x="125" y="74" /><rect x="14" y="148" /><rect x="14" y="74" /><rect x="161" y="111" /><rect x="161" y="185" /><rect x="51" y="111" /><rect x="51" y="185" /><rect x="88" y="111" /><rect x="88" y="148" /><rect x="88" y="38" /></g> <rect x="14.0" y="14.0" width="6.166666666666664" height="24.0" stroke-opacity="0.9" stroke="#000000" stroke-width="0.5" fill-opacity="0.5" fill="#000000" /><rect x="20.17" y="38.0" width="6.166666666666668" height="0.0" stroke-opacity="0.9" stroke="#000000" stroke-width="0.5" fill-opacity="0.5" fill="#000000" /><rect x="26.33" y="38.0" width="6.166666666666668" height="0.0" stroke-opacity="0.9" stroke="#000000" stroke-width="0.5" fill-opacity="0.5" fill="#000000" /><rect x="32.5" y="38.0" width="6.166666666666664" height="0.0" stroke-opacity="0.9" stroke="#000000" stroke-width="0.5" fill-opacity="0.5" fill="#000000" /><rect x="38.67" y="38.0" width="6.166666666666671" height="0.0" stroke-opacity="0.9" stroke="#000000" stroke-width="0.5" fill-opacity="0.5" fill="#000000" /><rect x="44.83" y="38.0" width="6.166666666666664" height="0.0" stroke-opacity="0.9" stroke="#000000" stroke-width="0.5" fill-opacity="0.5" fill="#000000" /><rect x="51.0" y="14.0" width="6.166666666666671" height="24.0" stroke-opacity="0.9" stroke="#000000" stroke-width="0.5" fill-opacity="0.5" fill="#000000" /><rect x="57.17" y="38.0" width="6.166666666666657" height="0.0" stroke-opacity="0.9" stroke="#000000" stroke-width="0.5" fill-opacity="0.5" fill="#000000" /><rect x="63.33" y="38.0" width="6.166666666666671" height="0.0" stroke-opacity="0.9" stroke="#000000" stroke-width="0.5" fill-opacity="0.5" fill="#000000" /><rect x="69.5" y="38.0" width="6.166666666666671" height="0.0" stroke-opacity="0.9" stroke="#000000" stroke-width="0.5" fill-opacity="0.5" fill="#000000" /><rect x="75.67" y="38.0" width="6.166666666666657" height="0.0" stroke-opacity="0.9" stroke="#000000" stroke-width="0.5" fill-opacity="0.5" fill="#000000" /><rect x="81.83" y="38.0" width="6.166666666666671" height="0.0" stroke-opacity="0.9" stroke="#000000" stroke-width="0.5" fill-opacity="0.5" fill="#000000" /><rect x="88.0" y="2.0" width="6.166666666666657" height="36.0" stroke-opacity="0.9" stroke="#000000" stroke-width="0.5" fill-opacity="0.5" fill="#000000" /><rect x="94.17" y="38.0" width="6.166666666666686" height="0.0" stroke-opacity="0.9" stroke="#000000" stroke-width="0.5" fill-opacity="0.5" fill="#000000" /><rect x="100.33" y="38.0" width="6.166666666666657" height="0.0" stroke-opacity="0.9" stroke="#000000" stroke-width="0.5" fill-opacity="0.5" fill="#000000" /><rect x="106.5" y="38.0" width="6.166666666666657" height="0.0" stroke-opacity="0.9" stroke="#000000" stroke-width="0.5" fill-opacity="0.5" fill="#000000" /><rect x="112.67" y="38.0" width="6.166666666666686" height="0.0" stroke-opacity="0.9" stroke="#000000" stroke-width="0.5" fill-opacity="0.5" fill="#000000" /><rect x="118.83" y="38.0" width="6.166666666666657" height="0.0" stroke-opacity="0.9" stroke="#000000" stroke-width="0.5" fill-opacity="0.5" fill="#000000" /><rect x="125.0" y="26.0" width="6.166666666666657" height="12.0" stroke-opacity="0.9" stroke="#000000" stroke-width="0.5" fill-opacity="0.5" fill="#000000" /><rect x="131.17" y="38.0" width="6.166666666666686" height="0.0" stroke-opacity="0.9" stroke="#000000" stroke-width="0.5" fill-opacity="0.5" fill="#000000" /><rect x="137.33" y="38.0" width="6.166666666666657" height="0.0" stroke-opacity="0.9" stroke="#000000" stroke-width="0.5" fill-opacity="0.5" fill="#000000" /><rect x="143.5" y="38.0" width="6.166666666666657" height="0.0" stroke-opacity="0.9" stroke="#000000" stroke-width="0.5" fill-opacity="0.5" fill="#000000" /><rect x="149.67" y="38.0" width="6.166666666666686" height="0.0" stroke-opacity="0.9" stroke="#000000" stroke-width="0.5" fill-opacity="0.5" fill="#000000" /><rect x="155.83" y="14.0" width="6.166666666666657" height="24.0" stroke-opacity="0.9" stroke="#000000" stroke-width="0.5" fill-opacity="0.5" fill="#000000" /><rect x="162.00" y="179.83" width="24.0" height="6.166666666666657" stroke-opacity="0.9" stroke="#000000" stroke-width="0.5" fill-opacity="0.5" fill="#000000" /><rect x="162.00" y="173.67" width="0.0" height="6.166666666666686" stroke-opacity="0.9" stroke="#000000" stroke-width="0.5" fill-opacity="0.5" fill="#000000" /><rect x="162.00" y="167.5" width="0.0" height="6.166666666666657" stroke-opacity="0.9" stroke="#000000" stroke-width="0.5" fill-opacity="0.5" fill="#000000" /><rect x="162.00" y="161.33" width="0.0" height="6.166666666666657" stroke-opacity="0.9" stroke="#000000" stroke-width="0.5" fill-opacity="0.5" fill="#000000" /><rect x="162.00" y="155.17" width="0.0" height="6.166666666666686" stroke-opacity="0.9" stroke="#000000" stroke-width="0.5" fill-opacity="0.5" fill="#000000" /><rect x="162.00" y="149.0" width="0.0" height="6.166666666666657" stroke-opacity="0.9" stroke="#000000" stroke-width="0.5" fill-opacity="0.5" fill="#000000" /><rect x="162.00" y="142.83" width="24.0" height="6.166666666666686" stroke-opacity="0.9" stroke="#000000" stroke-width="0.5" fill-opacity="0.5" fill="#000000" /><rect x="162.00" y="136.67" width="0.0" height="6.166666666666629" stroke-opacity="0.9" stroke="#000000" stroke-width="0.5" fill-opacity="0.5" fill="#000000" /><rect x="162.00" y="130.5" width="0.0" height="6.166666666666686" stroke-opacity="0.9" stroke="#000000" stroke-width="0.5" fill-opacity="0.5" fill="#000000" /><rect x="162.00" y="124.33" width="0.0" height="6.166666666666671" stroke-opacity="0.9" stroke="#000000" stroke-width="0.5" fill-opacity="0.5" fill="#000000" /><rect x="162.00" y="118.17" width="0.0" height="6.166666666666657" stroke-opacity="0.9" stroke="#000000" stroke-width="0.5" fill-opacity="0.5" fill="#000000" /><rect x="162.00" y="112.0" width="0.0" height="6.166666666666671" stroke-opacity="0.9" stroke="#000000" stroke-width="0.5" fill-opacity="0.5" fill="#000000" /><rect x="162.00" y="105.83" width="36.0" height="6.166666666666657" stroke-opacity="0.9" stroke="#000000" stroke-width="0.5" fill-opacity="0.5" fill="#000000" /><rect x="162.00" y="99.67" width="0.0" height="6.166666666666686" stroke-opacity="0.9" stroke="#000000" stroke-width="0.5" fill-opacity="0.5" fill="#000000" /><rect x="162.00" y="93.5" width="0.0" height="6.166666666666657" stroke-opacity="0.9" stroke="#000000" stroke-width="0.5" fill-opacity="0.5" fill="#000000" /><rect x="162.00" y="87.33" width="0.0" height="6.166666666666657" stroke-opacity="0.9" stroke="#000000" stroke-width="0.5" fill-opacity="0.5" fill="#000000" /><rect x="162.00" y="81.17" width="0.0" height="6.166666666666686" stroke-opacity="0.9" stroke="#000000" stroke-width="0.5" fill-opacity="0.5" fill="#000000" /><rect x="162.00" y="75.0" width="0.0" height="6.166666666666657" stroke-opacity="0.9" stroke="#000000" stroke-width="0.5" fill-opacity="0.5" fill="#000000" /><rect x="162.00" y="68.83" width="24.0" height="6.166666666666657" stroke-opacity="0.9" stroke="#000000" stroke-width="0.5" fill-opacity="0.5" fill="#000000" /><rect x="162.00" y="62.67" width="0.0" height="6.166666666666686" stroke-opacity="0.9" stroke="#000000" stroke-width="0.5" fill-opacity="0.5" fill="#000000" /><rect x="162.00" y="56.5" width="0.0" height="6.166666666666657" stroke-opacity="0.9" stroke="#000000" stroke-width="0.5" fill-opacity="0.5" fill="#000000" /><rect x="162.00" y="50.33" width="0.0" height="6.166666666666657" stroke-opacity="0.9" stroke="#000000" stroke-width="0.5" fill-opacity="0.5" fill="#000000" /><rect x="162.00" y="44.17" width="0.0" height="6.166666666666686" stroke-opacity="0.9" stroke="#000000" stroke-width="0.5" fill-opacity="0.5" fill="#000000" /><rect x="162.00" y="38.0" width="12.0" height="6.166666666666657" stroke-opacity="0.9" stroke="#000000" stroke-width="0.5" fill-opacity="0.5" fill="#000000" /> <rect x="0" y="0" width="199" height="199" fill="none" stroke="#a0a0a0" stroke-width="1" /></svg>