<svg id="histop_TESTID" x="0" y="0" width="128" height="128" xmlns="http://www.w3.org/2000/svg"><rect x="0" y="0" width="128" height="128" fill="#ffffff" /><line x1="29.5" y1="16.0" x2="29.5" y2="64.0" stroke="#a0a0a0" stroke-width="0.5" /><line x1="57.0" y1="16.0" x2="57.0" y2="64.0" stroke="#a0a0a0" stroke-width="0.5" /><line x1="84.5" y1="16.0" x2="84.5" y2="64.0" stroke="#a0a0a0" stroke-width="0.5" /><line x1="112.0" y1="16.0" x2="112.0" y2="64.0" stroke="#a0a0a0" stroke-width="0.5" /><line x1="13.6" y1="24.0" x2="59.9" y2="24.0" stroke="#3939ff" stroke-width="1" /><rect x="25.2" y="19.2" width="23.2" height="9.6" fill="#3939ff" fill-opacity="0.3" stroke="#3939ff" stroke-width="0.5" /><line x1="36.7" y1="19.2" x2="36.7" y2="28.8" stroke="#3939ff" stroke-width="1.5" /><line x1="19.4" y1="40.0" x2="54.1" y2="40.0" stroke="#3939ff" stroke-width="1" /><rect x="30.9" y="35.2" width="11.6" height="9.6" fill="#3939ff" fill-opacity="0.3" stroke="#3939ff" stroke-width="0.5" /><line x1="36.7" y1="35.2" x2="36.7" y2="44.8" stroke="#3939ff" stroke-width="1.5" /><line x1="7.8" y1="56.0" x2="112.0" y2="56.0" stroke="#3939ff" stroke-width="1" /><rect x="59.9" y="51.2" width="52.1" height="9.6" fill="#3939ff" fill-opacity="0.3" stroke="#3939ff" stroke-width="0.5" /><line x1="59.9" y1="51.2" x2="59.9" y2="60.8" stroke="#3939ff" stroke-width="1.5" /><text x="4" text-anchor="start" y="30" font-family="'Noto Sans', sans-serif" fill="#000000" font-size="12px">A</text><text x="4" text-anchor="start" y="46" font-family="'Noto Sans', sans-serif" fill="#000000" font-size="12px">B</text><text x="4" text-anchor="start" y="62" font-family="'Noto Sans', sans-serif" fill="#000000" font-size="12px">C</text><rect x="2.0" y="16.0" width="110.0" height="48.0" stroke="#a0a0a0" fill="none" stroke-width="0.5" /><text x="2" text-anchor="start" y="15" font-family="'Noto Sans', sans-serif" fill="#000000" font-size="9.6px">0</text><text x="57.0" text-anchor="middle" y="15" font-family="'Noto Sans', sans-serif" fill="#000000" font-size="9.6px">val</text><text x="112" text-anchor="end" y="15" font-family="'Noto Sans', sans-serif" fill="#000000" font-size="9.6px">95</text><text x="114.2" text-anchor="middle" y="64.0" font-family="'Noto Sans', sans-serif" fill="#000000" font-size="9.6px" transform="rotate(90,114.2,64.0)">cat</text><rect x="0" y="0" width="127" height="127" fill="none" stroke="#a0a0a0" stroke-width="1" /></svg>