<svg id="histop_TESTID" x="0" y="0" width="256" height="256" xmlns="http://www.w3.org/2000/svg"><rect x="0" y="0" width="256" height="256" fill="#ffffff" /><line x1="48.0" y1="16.0" x2="48.0" y2="80.0" stroke="#a0a0a0" stroke-width="0.5" /><line x1="94.0" y1="16.0" x2="94.0" y2="80.0" stroke="#a0a0a0" stroke-width="0.5" /><line x1="140.0" y1="16.0" x2="140.0" y2="80.0" stroke="#a0a0a0" stroke-width="0.5" /><line x1="186.0" y1="16.0" x2="186.0" y2="80.0" stroke="#a0a0a0" stroke-width="0.5" /><rect x="2.0" y="16.0" width="184.0" height="16.0" fill="#5e4fa2" stroke="none" /><rect x="2.0" y="32.0" width="138.0" height="16.0" fill="#c9e99d" stroke="none" /><rect x="2.0" y="48.0" width="92.0" height="16.0" fill="#fa9d59" stroke="none" /><rect x="2.0" y="64.0" width="46.0" height="16.0" fill="#9e0142" stroke="none" /><text x="4" text-anchor="start" y="30" font-family="'Noto Sans', sans-serif" fill="#000000" font-size="12px">alpha</text><text x="4" text-anchor="start" y="46" font-family="'Noto Sans', sans-serif" fill="#000000" font-size="12px">beta</text><text x="4" text-anchor="start" y="62" font-family="'Noto Sans', sans-serif" fill="#000000" font-size="12px">gamma</text><text x="4" text-anchor="start" y="78" font-family="'Noto Sans', sans-serif" fill="#000000" font-size="12px">delta</text><rect x="2.0" y="16.0" width="184.0" height="64.0" stroke="#a0a0a0" fill="none" stroke-width="0.5" /><text x="2" text-anchor="start" y="15" font-family="'Noto Sans', sans-serif" fill="#000000" font-size="9.6px">0</text><text x="94.0" text-anchor="middle" y="15" font-family="'Noto Sans', sans-serif" fill="#000000" font-size="9.6px">Rows</text><text x="186" text-anchor="end" y="15" font-family="'Noto Sans', sans-serif" fill="#000000" font-size="9.6px">8</text><text x="188.2" text-anchor="middle" y="128.0" font-family="'Noto Sans', sans-serif" fill="#000000" font-size="9.6px" transform="rotate(90,188.2,128.0)">bin</text><rect x="43.9" y="245.0" width="8.2" height="8.0" fill="#cccccc" stroke="none" /><rect x="95.0" y="245.0" width="8.2" height="8.0" fill="#cccccc" stroke="none" /><rect x="135.9" y="245.0" width="8.2" height="8.0" fill="#cccccc" stroke="none" /><rect x="176.8" y="245.0" width="8.2" height="8.0" fill="#cccccc" stroke="none" /><text x="206.0" text-anchor="start" y="13.0" font-family="'Noto Sans', sans-serif" fill="#000000" font-size="12.0px">val</text><text x="206.0" text-anchor="start" y="27.0" font-family="'Noto Sans', sans-serif" fill="#404040" font-size="12.0px">32</text><rect x="206.00" y="32.00" width="10.00" height="3.72" fill="#5a53a3" /><rect x="206.00" y="35.22" width="10.00" height="3.72" fill="#545ba7" /><rect x="206.00" y="38.44" width="10.00" height="3.72" fill="#4e63ab" /><rect x="206.00" y="41.66" width="10.00" height="3.72" fill="#486baf" /><rect x="206.00" y="44.88" width="10.00" height="3.72" fill="#4273b3" /><rect x="206.00" y="48.09" width="10.00" height="3.72" fill="#3b7bb6" /><rect x="206.00" y="51.31" width="10.00" height="3.72" fill="#3583ba" /><rect x="206.00" y="54.53" width="10.00" height="3.72" fill="#348bbb" /><rect x="206.00" y="57.75" width="10.00" height="3.72" fill="#3c93b8" /><rect x="206.00" y="60.97" width="10.00" height="3.72" fill="#439bb4" /><rect x="206.00" y="64.19" width="10.00" height="3.72" fill="#4aa3b1" /><rect x="206.00" y="67.41" width="10.00" height="3.72" fill="#52abae" /><rect x="206.00" y="70.62" width="10.00" height="3.72" fill="#59b3aa" /><rect x="206.00" y="73.84" width="10.00" height="3.72" fill="#60bca7" /><rect x="206.00" y="77.06" width="10.00" height="3.72" fill="#68c3a4" /><rect x="206.00" y="80.28" width="10.00" height="3.72" fill="#72c6a4" /><rect x="206.00" y="83.50" width="10.00" height="3.72" fill="#7ccaa4" /><rect x="206.00" y="86.72" width="10.00" height="3.72" fill="#85cea4" /><rect x="206.00" y="89.94" width="10.00" height="3.72" fill="#8fd2a4" /><rect x="206.00" y="93.16" width="10.00" height="3.72" fill="#99d6a4" /><rect x="206.00" y="96.38" width="10.00" height="3.72" fill="#a2d9a4" /><rect x="206.00" y="99.59" width="10.00" height="3.72" fill="#acdda3" /><rect x="206.00" y="102.81" width="10.00" height="3.72" fill="#b4e0a2" /><rect x="206.00" y="106.03" width="10.00" height="3.72" fill="#bce4a0" /><rect x="206.00" y="109.25" width="10.00" height="3.72" fill="#c5e79e" /><rect x="206.00" y="112.47" width="10.00" height="3.72" fill="#cdeb9c" /><rect x="206.00" y="115.69" width="10.00" height="3.72" fill="#d5ee9b" /><rect x="206.00" y="118.91" width="10.00" height="3.72" fill="#def199" /><rect x="206.00" y="122.12" width="10.00" height="3.72" fill="#e6f497" /><rect x="206.00" y="125.34" width="10.00" height="3.72" fill="#e9f196" /><rect x="206.00" y="128.56" width="10.00" height="3.72" fill="#ecee94" /><rect x="206.00" y="131.78" width="10.00" height="3.72" fill="#f0eb92" /><rect x="206.00" y="135.00" width="10.00" height="3.72" fill="#f3e990" /><rect x="206.00" y="138.22" width="10.00" height="3.72" fill="#f7e68e" /><rect x="206.00" y="141.44" width="10.00" height="3.72" fill="#fae38c" /><rect x="206.00" y="144.66" width="10.00" height="3.72" fill="#fde08b" /><rect x="206.00" y="147.88" width="10.00" height="3.72" fill="#fdd985" /><rect x="206.00" y="151.09" width="10.00" height="3.72" fill="#fdd27f" /><rect x="206.00" y="154.31" width="10.00" height="3.72" fill="#fdcb79" /><rect x="206.00" y="157.53" width="10.00" height="3.72" fill="#fdc473" /><rect x="206.00" y="160.75" width="10.00" height="3.72" fill="#fdbd6d" /><rect x="206.00" y="163.97" width="10.00" height="3.72" fill="#fdb667" /><rect x="206.00" y="167.19" width="10.00" height="3.72" fill="#fdaf61" /><rect x="206.00" y="170.41" width="10.00" height="3.72" fill="#fba65d" /><rect x="206.00" y="173.62" width="10.00" height="3.72" fill="#fa9d59" /><rect x="206.00" y="176.84" width="10.00" height="3.72" fill="#f99455" /><rect x="206.00" y="180.06" width="10.00" height="3.72" fill="#f88a50" /><rect x="206.00" y="183.28" width="10.00" height="3.72" fill="#f6814c" /><rect x="206.00" y="186.50" width="10.00" height="3.72" fill="#f57848" /><rect x="206.00" y="189.72" width="10.00" height="3.72" fill="#f46f44" /><rect x="206.00" y="192.94" width="10.00" height="3.72" fill="#f06844" /><rect x="206.00" y="196.16" width="10.00" height="3.72" fill="#ec6145" /><rect x="206.00" y="199.38" width="10.00" height="3.72" fill="#e85b47" /><rect x="206.00" y="202.59" width="10.00" height="3.72" fill="#e35449" /><rect x="206.00" y="205.81" width="10.00" height="3.72" fill="#df4d4a" /><rect x="206.00" y="209.03" width="10.00" height="3.72" fill="#db474c" /><rect x="206.00" y="212.25" width="10.00" height="3.72" fill="#d6404e" /><rect x="206.00" y="215.47" width="10.00" height="3.72" fill="#d0384d" /><rect x="206.00" y="218.69" width="10.00" height="3.72" fill="#c8304c" /><rect x="206.00" y="221.91" width="10.00" height="3.72" fill="#c0274a" /><rect x="206.00" y="225.12" width="10.00" height="3.72" fill="#b91f48" /><rect x="206.00" y="228.34" width="10.00" height="3.72" fill="#b11646" /><rect x="206.00" y="231.56" width="10.00" height="3.72" fill="#a90d44" /><rect x="206.00" y="234.78" width="10.00" height="3.72" fill="#a10542" /><text x="206.0" text-anchor="start" y="249.0" font-family="'Noto Sans', sans-serif" fill="#404040" font-size="12.0px">9</text><rect x="0" y="0" width="255" height="255" fill="none" stroke="#a0a0a0" stroke-width="1" /></svg>