<svg id="xyp_TESTID" x="0" y="0" width="256" height="192" xmlns="http://www.w3.org/2000/svg">
                        <defs>
                               <clipPath id="plotClip-TESTID">
                                 <rect x="13" y="21" width="242" height="158" />
                               </clipPath>
                             </defs>
                        <style> .rect-group-TESTID rect { width: 1px; height: 1px; } </style>
                        <rect x="0" y="0" width="256" height="192" fill="#ffffff" stroke="#ffffff" />
                        <text x="14" text-anchor="start" y="190" font-family="'Noto Sans', sans-serif" fill="#0015D2" font-size="12px">1.0</text><text x="133.94" text-anchor="middle" y="190" font-family="'Noto Sans', sans-serif" fill="#404040" font-size="12px">x</text><text x="254" text-anchor="end" y="190" font-family="'Noto Sans', sans-serif" fill="#A10000" font-size="12px">8.0</text><text x="12" text-anchor="start" y="178" font-family="'Noto Sans', sans-serif" fill="#0015D2" font-size="12px" transform="rotate(270,12,178)">1.0</text><text x="12" text-anchor="middle" y="100.06" font-family="'Noto Sans', sans-serif" fill="#404040" font-size="12px" transform="rotate(270,12,100.06)">y</text><text x="12" text-anchor="end" y="22" font-family="'Noto Sans', sans-serif" fill="#A10000" font-size="12px" transform="rotate(270,12,22)">8.0</text><line x1="48.3" y1="22" x2="48.3" y2="178" stroke="#a0a0a0" stroke-width="0.4" /><text x="48.3" text-anchor="start" y="22" font-family="'Noto Sans', sans-serif" fill="#a0a0a0" font-size="7.2px" transform="rotate(90,48.3,22)">2</text><line x1="116.9" y1="22" x2="116.9" y2="178" stroke="#a0a0a0" stroke-width="0.4" /><text x="116.9" text-anchor="start" y="22" font-family="'Noto Sans', sans-serif" fill="#a0a0a0" font-size="7.2px" transform="rotate(90,116.9,22)">4</text><line x1="185.4" y1="22" x2="185.4" y2="178" stroke="#a0a0a0" stroke-width="0.4" /><text x="185.4" text-anchor="start" y="22" font-family="'Noto Sans', sans-serif" fill="#a0a0a0" font-size="7.2px" transform="rotate(90,185.4,22)">6</text><line x1="14" y1="88.9" x2="254" y2="88.9" stroke="#a0a0a0" stroke-width="0.4" /><text x="14" text-anchor="start" y="88.9" font-family="'Noto Sans', sans-serif" fill="#a0a0a0" font-size="7.2px">5</text><rect x="14" y="22" width="240" height="156" stroke="#a0a0a0" fill="none" stroke-width="0.25" />  <g class="rect-group-TESTID" stroke="none" fill="#3939ff"><rect x="116" y="22" fill="#706ecb" /><rect x="14" y="155" fill="#706ecb" /><rect x="151" y="88" fill="#48de6f" /><rect x="185" y="44" fill="#6c9b5b" /><rect x="219" y="133" fill="#b1d653" /><rect x="253" y="66" fill="#b98e54" /><rect x="48" y="111" fill="#48de6f" /><rect x="82" y="177" fill="#6c9b5b" /></g>  <text x="4.0" text-anchor="start" y="13.0" font-family="'Noto Sans', sans-serif" fill="#000000" font-size="12.0px">Category</text><rect x="63.13" y="6.00" width="8.00" height="8.00" fill="#706ecb" /><text x="74.13" text-anchor="start" y="13.0" font-family="'Noto Sans', sans-serif" fill="#000000" font-size="12.0px">a</text><rect x="90.86" y="6.00" width="8.00" height="8.00" fill="#48de6f" /><text x="101.86" text-anchor="start" y="13.0" font-family="'Noto Sans', sans-serif" fill="#000000" font-size="12.0px">b</text><rect x="119.24" y="6.00" width="8.00" height="8.00" fill="#6c9b5b" /><text x="130.24" text-anchor="start" y="13.0" font-family="'Noto Sans', sans-serif" fill="#000000" font-size="12.0px">c</text><text x="146" text-anchor="start" y="13.0" font-family="'Noto Sans', sans-serif" fill="#404040" font-size="12.0px">... 2 more</text></svg>