<svg id="xyp_TESTID" x="0" y="0" width="256" height="192" xmlns="http://www.w3.org/2000/svg">
                        <defs>
                               <clipPath id="plotClip-TESTID">
                                 <rect x="67" y="1" width="188" height="178" />
                               </clipPath>
                             </defs>
                        <style> .rect-group-TESTID rect { width: 1px; height: 1px; } </style>
                        <rect x="0" y="0" width="256" height="192" fill="#ffffff" stroke="#ffffff" />
                        <text x="68" text-anchor="start" y="190" font-family="'Noto Sans', sans-serif" fill="#0015D2" font-size="12px">1.0</text><text x="160.94" text-anchor="middle" y="190" font-family="'Noto Sans', sans-serif" fill="#404040" font-size="12px">x</text><text x="254" text-anchor="end" y="190" font-family="'Noto Sans', sans-serif" fill="#A10000" font-size="12px">8.0</text><text x="66" text-anchor="start" y="178" font-family="'Noto Sans', sans-serif" fill="#0015D2" font-size="12px" transform="rotate(270,66,178)">1.0</text><text x="66" text-anchor="middle" y="90.06" font-family="'Noto Sans', sans-serif" fill="#404040" font-size="12px" transform="rotate(270,66,90.06)">y</text><text x="66" text-anchor="end" y="2" font-family="'Noto Sans', sans-serif" fill="#A10000" font-size="12px" transform="rotate(270,66,2)">8.0</text><line x1="94.6" y1="2" x2="94.6" y2="178" stroke="#a0a0a0" stroke-width="0.4" /><text x="94.6" text-anchor="start" y="2" font-family="'Noto Sans', sans-serif" fill="#a0a0a0" font-size="7.2px" transform="rotate(90,94.6,2)">2</text><line x1="147.7" y1="2" x2="147.7" y2="178" stroke="#a0a0a0" stroke-width="0.4" /><text x="147.7" text-anchor="start" y="2" font-family="'Noto Sans', sans-serif" fill="#a0a0a0" font-size="7.2px" transform="rotate(90,147.7,2)">4</text><line x1="200.9" y1="2" x2="200.9" y2="178" stroke="#a0a0a0" stroke-width="0.4" /><text x="200.9" text-anchor="start" y="2" font-family="'Noto Sans', sans-serif" fill="#a0a0a0" font-size="7.2px" transform="rotate(90,200.9,2)">6</text><line x1="68" y1="152.9" x2="254" y2="152.9" stroke="#a0a0a0" stroke-width="0.4" /><text x="68" text-anchor="start" y="152.9" font-family="'Noto Sans', sans-serif" fill="#a0a0a0" font-size="7.2px">2</text><line x1="68" y1="102.6" x2="254" y2="102.6" stroke="#a0a0a0" stroke-width="0.4" /><text x="68" text-anchor="start" y="102.6" font-family="'Noto Sans', sans-serif" fill="#a0a0a0" font-size="7.2px">4</text><line x1="68" y1="52.3" x2="254" y2="52.3" stroke="#a0a0a0" stroke-width="0.4" /><text x="68" text-anchor="start" y="52.3" font-family="'Noto Sans', sans-serif" fill="#a0a0a0" font-size="7.2px">6</text><rect x="68" y="2" width="186" height="176" stroke="#a0a0a0" fill="none" stroke-width="0.25" />  <g class="rect-group-TESTID" stroke="none" fill="#3939ff"><rect x="121" y="177" fill="#f99354" /><rect x="147" y="2" fill="#9e0142" /><rect x="174" y="77" fill="#fdd27f" /><rect x="200" y="27" fill="#e85b47" /><rect x="227" y="127" fill="#bd2449" /><rect x="253" y="52" fill="#5e4fa2" /><rect x="68" y="152" fill="#b81e48" /><rect x="94" y="102" fill="#f16944" /></g>  <text x="4.0" text-anchor="start" y="13.0" font-family="'Noto Sans', sans-serif" fill="#000000" font-size="12.0px">val</text><text x="4.0" text-anchor="start" y="27.0" font-family="'Noto Sans', sans-serif" fill="#404040" font-size="12.0px">39.6</text><rect x="4.00" y="32.00" width="10.00" height="2.72" fill="#5a53a3" /><rect x="4.00" y="34.22" width="10.00" height="2.72" fill="#545ba7" /><rect x="4.00" y="36.44" width="10.00" height="2.72" fill="#4e63ab" /><rect x="4.00" y="38.66" width="10.00" height="2.72" fill="#486baf" /><rect x="4.00" y="40.88" width="10.00" height="2.72" fill="#4273b3" /><rect x="4.00" y="43.09" width="10.00" height="2.72" fill="#3b7bb6" /><rect x="4.00" y="45.31" width="10.00" height="2.72" fill="#3583ba" /><rect x="4.00" y="47.53" width="10.00" height="2.72" fill="#348bbb" /><rect x="4.00" y="49.75" width="10.00" height="2.72" fill="#3c93b8" /><rect x="4.00" y="51.97" width="10.00" height="2.72" fill="#439bb4" /><rect x="4.00" y="54.19" width="10.00" height="2.72" fill="#4aa3b1" /><rect x="4.00" y="56.41" width="10.00" height="2.72" fill="#52abae" /><rect x="4.00" y="58.62" width="10.00" height="2.72" fill="#59b3aa" /><rect x="4.00" y="60.84" width="10.00" height="2.72" fill="#60bca7" /><rect x="4.00" y="63.06" width="10.00" height="2.72" fill="#68c3a4" /><rect x="4.00" y="65.28" width="10.00" height="2.72" fill="#72c6a4" /><rect x="4.00" y="67.50" width="10.00" height="2.72" fill="#7ccaa4" /><rect x="4.00" y="69.72" width="10.00" height="2.72" fill="#85cea4" /><rect x="4.00" y="71.94" width="10.00" height="2.72" fill="#8fd2a4" /><rect x="4.00" y="74.16" width="10.00" height="2.72" fill="#99d6a4" /><rect x="4.00" y="76.38" width="10.00" height="2.72" fill="#a2d9a4" /><rect x="4.00" y="78.59" width="10.00" height="2.72" fill="#acdda3" /><rect x="4.00" y="80.81" width="10.00" height="2.72" fill="#b4e0a2" /><rect x="4.00" y="83.03" width="10.00" height="2.72" fill="#bce4a0" /><rect x="4.00" y="85.25" width="10.00" height="2.72" fill="#c5e79e" /><rect x="4.00" y="87.47" width="10.00" height="2.72" fill="#cdeb9c" /><rect x="4.00" y="89.69" width="10.00" height="2.72" fill="#d5ee9b" /><rect x="4.00" y="91.91" width="10.00" height="2.72" fill="#def199" /><rect x="4.00" y="94.12" width="10.00" height="2.72" fill="#e6f497" /><rect x="4.00" y="96.34" width="10.00" height="2.72" fill="#e9f196" /><rect x="4.00" y="98.56" width="10.00" height="2.72" fill="#ecee94" /><rect x="4.00" y="100.78" width="10.00" height="2.72" fill="#f0eb92" /><rect x="4.00" y="103.00" width="10.00" height="2.72" fill="#f3e990" /><rect x="4.00" y="105.22" width="10.00" height="2.72" fill="#f7e68e" /><rect x="4.00" y="107.44" width="10.00" height="2.72" fill="#fae38c" /><rect x="4.00" y="109.66" width="10.00" height="2.72" fill="#fde08b" /><rect x="4.00" y="111.88" width="10.00" height="2.72" fill="#fdd985" /><rect x="4.00" y="114.09" width="10.00" height="2.72" fill="#fdd27f" /><rect x="4.00" y="116.31" width="10.00" height="2.72" fill="#fdcb79" /><rect x="4.00" y="118.53" width="10.00" height="2.72" fill="#fdc473" /><rect x="4.00" y="120.75" width="10.00" height="2.72" fill="#fdbd6d" /><rect x="4.00" y="122.97" width="10.00" height="2.72" fill="#fdb667" /><rect x="4.00" y="125.19" width="10.00" height="2.72" fill="#fdaf61" /><rect x="4.00" y="127.41" width="10.00" height="2.72" fill="#fba65d" /><rect x="4.00" y="129.62" width="10.00" height="2.72" fill="#fa9d59" /><rect x="4.00" y="131.84" width="10.00" height="2.72" fill="#f99455" /><rect x="4.00" y="134.06" width="10.00" height="2.72" fill="#f88a50" /><rect x="4.00" y="136.28" width="10.00" height="2.72" fill="#f6814c" /><rect x="4.00" y="138.50" width="10.00" height="2.72" fill="#f57848" /><rect x="4.00" y="140.72" width="10.00" height="2.72" fill="#f46f44" /><rect x="4.00" y="142.94" width="10.00" height="2.72" fill="#f06844" /><rect x="4.00" y="145.16" width="10.00" height="2.72" fill="#ec6145" /><rect x="4.00" y="147.38" width="10.00" height="2.72" fill="#e85b47" /><rect x="4.00" y="149.59" width="10.00" height="2.72" fill="#e35449" /><rect x="4.00" y="151.81" width="10.00" height="2.72" fill="#df4d4a" /><rect x="4.00" y="154.03" width="10.00" height="2.72" fill="#db474c" /><rect x="4.00" y="156.25" width="10.00" height="2.72" fill="#d6404e" /><rect x="4.00" y="158.47" width="10.00" height="2.72" fill="#d0384d" /><rect x="4.00" y="160.69" width="10.00" height="2.72" fill="#c8304c" /><rect x="4.00" y="162.91" width="10.00" height="2.72" fill="#c0274a" /><rect x="4.00" y="165.12" width="10.00" height="2.72" fill="#b91f48" /><rect x="4.00" y="167.34" width="10.00" height="2.72" fill="#b11646" /><rect x="4.00" y="169.56" width="10.00" height="2.72" fill="#a90d44" /><rect x="4.00" y="171.78" width="10.00" height="2.72" fill="#a10542" /><text x="4.0" text-anchor="start" y="185.0" font-family="'Noto Sans', sans-serif" fill="#404040" font-size="12.0px">2</text><rect x="0" y="0" width="255" height="191" fill="none" stroke="#a0a0a0" stroke-width="1" /></svg>