<svg id="xyp_TESTID" x="0" y="0" width="256" height="192" xmlns="http://www.w3.org/2000/svg">
                        <defs>
                               <clipPath id="plotClip-TESTID">
                                 <rect x="13" y="1" width="215" height="178" />
                               </clipPath>
                             </defs>
                        <style> .rect-group-TESTID rect { width: 1px; height: 1px; } </style>
                        <rect x="0" y="0" width="256" height="192" fill="#ffffff" stroke="#ffffff" />
                        <text x="14" text-anchor="start" y="190" font-family="'Noto Sans', sans-serif" fill="#0015D2" font-size="12px">1.0</text><text x="119.94" text-anchor="middle" y="190" font-family="'Noto Sans', sans-serif" fill="#404040" font-size="12px">x</text><text x="227" text-anchor="end" y="190" font-family="'Noto Sans', sans-serif" fill="#A10000" font-size="12px">8.0</text><text x="12" text-anchor="start" y="178" font-family="'Noto Sans', sans-serif" fill="#0015D2" font-size="12px" transform="rotate(270,12,178)">1.0</text><text x="12" text-anchor="middle" y="90.06" font-family="'Noto Sans', sans-serif" fill="#404040" font-size="12px" transform="rotate(270,12,90.06)">y</text><text x="12" text-anchor="end" y="2" font-family="'Noto Sans', sans-serif" fill="#A10000" font-size="12px" transform="rotate(270,12,2)">8.0</text><line x1="44.4" y1="2" x2="44.4" y2="178" stroke="#a0a0a0" stroke-width="0.4" /><text x="44.4" text-anchor="start" y="2" font-family="'Noto Sans', sans-serif" fill="#a0a0a0" font-size="7.2px" transform="rotate(90,44.4,2)">2</text><line x1="105.3" y1="2" x2="105.3" y2="178" stroke="#a0a0a0" stroke-width="0.4" /><text x="105.3" text-anchor="start" y="2" font-family="'Noto Sans', sans-serif" fill="#a0a0a0" font-size="7.2px" transform="rotate(90,105.3,2)">4</text><line x1="166.1" y1="2" x2="166.1" y2="178" stroke="#a0a0a0" stroke-width="0.4" /><text x="166.1" text-anchor="start" y="2" font-family="'Noto Sans', sans-serif" fill="#a0a0a0" font-size="7.2px" transform="rotate(90,166.1,2)">6</text><line x1="14" y1="152.9" x2="227" y2="152.9" stroke="#a0a0a0" stroke-width="0.4" /><text x="14" text-anchor="start" y="152.9" font-family="'Noto Sans', sans-serif" fill="#a0a0a0" font-size="7.2px">2</text><line x1="14" y1="102.6" x2="227" y2="102.6" stroke="#a0a0a0" stroke-width="0.4" /><text x="14" text-anchor="start" y="102.6" font-family="'Noto Sans', sans-serif" fill="#a0a0a0" font-size="7.2px">4</text><line x1="14" y1="52.3" x2="227" y2="52.3" stroke="#a0a0a0" stroke-width="0.4" /><text x="14" text-anchor="start" y="52.3" font-family="'Noto Sans', sans-serif" fill="#a0a0a0" font-size="7.2px">6</text><rect x="14" y="2" width="213" height="176" stroke="#a0a0a0" fill="none" stroke-width="0.25" />  <g class="rect-group-TESTID" stroke="none" fill="#3939ff"><rect x="105" y="2" fill="#706ecb" /><rect x="135" y="77" fill="#48de6f" /><rect x="14" y="152" fill="#706ecb" /><rect x="166" y="27" fill="#6c9b5b" /><rect x="196" y="127" fill="#b1d653" /><rect x="226" y="52" fill="#b98e54" /><rect x="44" y="102" fill="#48de6f" /><rect x="74" y="177" fill="#6c9b5b" /></g>  <text x="233.0" text-anchor="start" y="13.0" font-family="'Noto Sans', sans-serif" fill="#000000" font-size="12.0px">cat</text><rect x="233.00" y="20.00" width="8.00" height="8.00" fill="#706ecb" /><text x="244.0" text-anchor="start" y="27.0" font-family="'Noto Sans', sans-serif" fill="#000000" font-size="12.0px">a</text><rect x="233.00" y="34.00" width="8.00" height="8.00" fill="#48de6f" /><text x="244.0" text-anchor="start" y="41.0" font-family="'Noto Sans', sans-serif" fill="#000000" font-size="12.0px">b</text><rect x="233.00" y="48.00" width="8.00" height="8.00" fill="#6c9b5b" /><text x="244.0" text-anchor="start" y="55.0" font-family="'Noto Sans', sans-serif" fill="#000000" font-size="12.0px">c</text><rect x="233.00" y="62.00" width="8.00" height="8.00" fill="#b1d653" /><text x="244.0" text-anchor="start" y="69.0" font-family="'Noto Sans', sans-serif" fill="#000000" font-size="12.0px">d</text><rect x="233.00" y="76.00" width="8.00" height="8.00" fill="#b98e54" /><text x="244.0" text-anchor="start" y="83.0" font-family="'Noto Sans', sans-serif" fill="#000000" font-size="12.0px">e</text><rect x="0" y="0" width="255" height="191" fill="none" stroke="#a0a0a0" stroke-width="1" /></svg>