<svg id="histop_TESTID" x="0" y="0" width="192" height="256" xmlns="http://www.w3.org/2000/svg"><rect x="0" y="0" width="192" height="256" fill="#ffffff" /><line x1="45.5" y1="16.0" x2="45.5" y2="80.0" stroke="#a0a0a0" stroke-width="0.5" /><line x1="89.0" y1="16.0" x2="89.0" y2="80.0" stroke="#a0a0a0" stroke-width="0.5" /><line x1="132.5" y1="16.0" x2="132.5" y2="80.0" stroke="#a0a0a0" stroke-width="0.5" /><line x1="176.0" y1="16.0" x2="176.0" y2="80.0" stroke="#a0a0a0" stroke-width="0.5" /><rect x="2.0" y="16" width="87.0" height="16" fill="#4fcdce" stroke="none" /><rect x="89.0" y="16" width="43.5" height="16" fill="#7a9997" stroke="none" /><rect x="132.5" y="16" width="43.5" height="16" fill="#a3551b" stroke="none" /><rect x="2.0" y="32" width="87.0" height="16" fill="#4fcdce" stroke="none" /><rect x="89.0" y="32" width="21.75" height="16" fill="#7a9997" stroke="none" /><rect x="110.75" y="32" width="21.75" height="16" fill="#a3551b" stroke="none" /><rect x="2.0" y="64" width="21.75" height="16" fill="#7a9997" stroke="none" /><rect x="23.75" y="64" width="21.75" height="16" fill="#a3551b" stroke="none" /><rect x="2.0" y="48" width="43.5" height="16" fill="#4fcdce" stroke="none" /><rect x="45.5" y="48" width="21.75" height="16" fill="#7a9997" stroke="none" /><rect x="67.25" y="48" width="21.75" height="16" fill="#a3551b" stroke="none" /><text x="4" text-anchor="start" y="30" font-family="'Noto Sans', sans-serif" fill="#000000" font-size="12px">alpha</text><text x="4" text-anchor="start" y="46" font-family="'Noto Sans', sans-serif" fill="#000000" font-size="12px">beta</text><text x="4" text-anchor="start" y="62" font-family="'Noto Sans', sans-serif" fill="#000000" font-size="12px">gamma</text><text x="4" text-anchor="start" y="78" font-family="'Noto Sans', sans-serif" fill="#000000" font-size="12px">delta</text><rect x="2.0" y="16.0" width="174.0" height="64.0" stroke="#a0a0a0" fill="none" stroke-width="0.5" /><text x="2" text-anchor="start" y="15" font-family="'Noto Sans', sans-serif" fill="#000000" font-size="9.6px">0</text><text x="89.0" text-anchor="middle" y="15" font-family="'Noto Sans', sans-serif" fill="#000000" font-size="9.6px">Rows</text><text x="176" text-anchor="end" y="15" font-family="'Noto Sans', sans-serif" fill="#000000" font-size="9.6px">8</text><text x="178.2" text-anchor="middle" y="118.0" font-family="'Noto Sans', sans-serif" fill="#000000" font-size="9.6px" transform="rotate(90,178.2,118.0)">bin</text><rect x="43.9" y="225.0" width="8.2" height="8.0" fill="#cccccc" stroke="none" /><rect x="84.9" y="225.0" width="8.2" height="8.0" fill="#cccccc" stroke="none" /><rect x="125.8" y="225.0" width="8.2" height="8.0" fill="#cccccc" stroke="none" /><rect x="166.8" y="225.0" width="8.2" height="8.0" fill="#cccccc" stroke="none" /><text x="4.0" text-anchor="start" y="249.0" font-family="'Noto Sans', sans-serif" fill="#000000" font-size="12.0px">grp</text><rect x="31.70" y="242.00" width="8.00" height="8.00" fill="#4fcdce" /><text x="42.7" text-anchor="start" y="249.0" font-family="'Noto Sans', sans-serif" fill="#000000" font-size="12.0px">x</text><rect x="59.05" y="242.00" width="8.00" height="8.00" fill="#a3551b" /><text x="70.05" text-anchor="start" y="249.0" font-family="'Noto Sans', sans-serif" fill="#000000" font-size="12.0px">y</text><rect x="86.17" y="242.00" width="8.00" height="8.00" fill="#7a9997" /><text x="97.17" text-anchor="start" y="249.0" font-family="'Noto Sans', sans-serif" fill="#000000" font-size="12.0px">z</text></svg>