<svg id="xyp_TESTID" x="0" y="0" width="256" height="192" xmlns="http://www.w3.org/2000/svg">
                        <defs>
                               <clipPath id="plotClip-TESTID">
                                 <rect x="13" y="1" width="242" height="158" />
                               </clipPath>
                             </defs>
                        <style> .rect-group-TESTID rect { width: 1px; height: 1px; } </style>
                        <rect x="0" y="0" width="256" height="192" fill="#ffffff" stroke="#ffffff" />
                        <text x="14" text-anchor="start" y="170" font-family="'Noto Sans', sans-serif" fill="#0015D2" font-size="12px">1.0</text><text x="133.94" text-anchor="middle" y="170" font-family="'Noto Sans', sans-serif" fill="#404040" font-size="12px">x</text><text x="254" text-anchor="end" y="170" font-family="'Noto Sans', sans-serif" fill="#A10000" font-size="12px">8.0</text><text x="12" text-anchor="start" y="158" font-family="'Noto Sans', sans-serif" fill="#0015D2" font-size="12px" transform="rotate(270,12,158)">1.0</text><text x="12" text-anchor="middle" y="80.06" font-family="'Noto Sans', sans-serif" fill="#404040" font-size="12px" transform="rotate(270,12,80.06)">y</text><text x="12" text-anchor="end" y="2" font-family="'Noto Sans', sans-serif" fill="#A10000" font-size="12px" transform="rotate(270,12,2)">8.0</text><line x1="48.3" y1="2" x2="48.3" y2="158" stroke="#a0a0a0" stroke-width="0.4" /><text x="48.3" text-anchor="start" y="2" font-family="'Noto Sans', sans-serif" fill="#a0a0a0" font-size="7.2px" transform="rotate(90,48.3,2)">2</text><line x1="116.9" y1="2" x2="116.9" y2="158" stroke="#a0a0a0" stroke-width="0.4" /><text x="116.9" text-anchor="start" y="2" font-family="'Noto Sans', sans-serif" fill="#a0a0a0" font-size="7.2px" transform="rotate(90,116.9,2)">4</text><line x1="185.4" y1="2" x2="185.4" y2="158" stroke="#a0a0a0" stroke-width="0.4" /><text x="185.4" text-anchor="start" y="2" font-family="'Noto Sans', sans-serif" fill="#a0a0a0" font-size="7.2px" transform="rotate(90,185.4,2)">6</text><line x1="14" y1="68.9" x2="254" y2="68.9" stroke="#a0a0a0" stroke-width="0.4" /><text x="14" text-anchor="start" y="68.9" font-family="'Noto Sans', sans-serif" fill="#a0a0a0" font-size="7.2px">5</text><rect x="14" y="2" width="240" height="156" stroke="#a0a0a0" fill="none" stroke-width="0.25" />  <g class="rect-group-TESTID" stroke="none" fill="#3939ff"><rect x="116" y="2" fill="#9e0142" /><rect x="14" y="135" fill="#9e0142" /><rect x="151" y="68" fill="#9e0142" /><rect x="185" y="24" fill="#9e0142" /><rect x="219" y="113" fill="#9e0142" /><rect x="253" y="46" fill="#9e0142" /><rect x="48" y="91" fill="#9e0142" /><rect x="82" y="157" fill="#9e0142" /></g>  <text x="4.0" text-anchor="start" y="185.0" font-family="'Noto Sans', sans-serif" fill="#000000" font-size="12.0px">rows</text><text x="38.94" text-anchor="start" y="185.0" font-family="'Noto Sans', sans-serif" fill="#404040" font-size="12.0px">4.0</text><rect x="59.88" y="178.00" width="3.17" height="8.00" fill="#a10542" /><rect x="62.55" y="178.00" width="3.17" height="8.00" fill="#a90d44" /><rect x="65.22" y="178.00" width="3.17" height="8.00" fill="#b11646" /><rect x="67.90" y="178.00" width="3.17" height="8.00" fill="#b91f48" /><rect x="70.57" y="178.00" width="3.17" height="8.00" fill="#c0274a" /><rect x="73.25" y="178.00" width="3.17" height="8.00" fill="#c8304c" /><rect x="75.92" y="178.00" width="3.17" height="8.00" fill="#d0384d" /><rect x="78.60" y="178.00" width="3.17" height="8.00" fill="#d6404e" /><rect x="81.27" y="178.00" width="3.17" height="8.00" fill="#db474c" /><rect x="83.95" y="178.00" width="3.17" height="8.00" fill="#df4d4a" /><rect x="86.62" y="178.00" width="3.17" height="8.00" fill="#e35449" /><rect x="89.30" y="178.00" width="3.17" height="8.00" fill="#e85b47" /><rect x="91.97" y="178.00" width="3.17" height="8.00" fill="#ec6145" /><rect x="94.65" y="178.00" width="3.17" height="8.00" fill="#f06844" /><rect x="97.32" y="178.00" width="3.17" height="8.00" fill="#f46f44" /><rect x="100.00" y="178.00" width="3.17" height="8.00" fill="#f57848" /><rect x="102.67" y="178.00" width="3.17" height="8.00" fill="#f6814c" /><rect x="105.35" y="178.00" width="3.17" height="8.00" fill="#f88a50" /><rect x="108.02" y="178.00" width="3.17" height="8.00" fill="#f99455" /><rect x="110.70" y="178.00" width="3.17" height="8.00" fill="#fa9d59" /><rect x="113.37" y="178.00" width="3.17" height="8.00" fill="#fba65d" /><rect x="116.05" y="178.00" width="3.17" height="8.00" fill="#fdaf61" /><rect x="118.72" y="178.00" width="3.17" height="8.00" fill="#fdb667" /><rect x="121.40" y="178.00" width="3.17" height="8.00" fill="#fdbd6d" /><rect x="124.07" y="178.00" width="3.17" height="8.00" fill="#fdc473" /><rect x="126.75" y="178.00" width="3.17" height="8.00" fill="#fdcb79" /><rect x="129.42" y="178.00" width="3.17" height="8.00" fill="#fdd27f" /><rect x="132.09" y="178.00" width="3.17" height="8.00" fill="#fdd985" /><rect x="134.77" y="178.00" width="3.17" height="8.00" fill="#fde08b" /><rect x="137.44" y="178.00" width="3.17" height="8.00" fill="#fae38c" /><rect x="140.12" y="178.00" width="3.17" height="8.00" fill="#f7e68e" /><rect x="142.79" y="178.00" width="3.17" height="8.00" fill="#f3e990" /><rect x="145.47" y="178.00" width="3.17" height="8.00" fill="#f0eb92" /><rect x="148.14" y="178.00" width="3.17" height="8.00" fill="#ecee94" /><rect x="150.82" y="178.00" width="3.17" height="8.00" fill="#e9f196" /><rect x="153.49" y="178.00" width="3.17" height="8.00" fill="#e6f497" /><rect x="156.17" y="178.00" width="3.17" height="8.00" fill="#def199" /><rect x="158.84" y="178.00" width="3.17" height="8.00" fill="#d5ee9b" /><rect x="161.52" y="178.00" width="3.17" height="8.00" fill="#cdeb9c" /><rect x="164.19" y="178.00" width="3.17" height="8.00" fill="#c5e79e" /><rect x="166.87" y="178.00" width="3.17" height="8.00" fill="#bce4a0" /><rect x="169.54" y="178.00" width="3.17" height="8.00" fill="#b4e0a2" /><rect x="172.22" y="178.00" width="3.17" height="8.00" fill="#acdda3" /><rect x="174.89" y="178.00" width="3.17" height="8.00" fill="#a2d9a4" /><rect x="177.57" y="178.00" width="3.17" height="8.00" fill="#99d6a4" /><rect x="180.24" y="178.00" width="3.17" height="8.00" fill="#8fd2a4" /><rect x="182.92" y="178.00" width="3.17" height="8.00" fill="#85cea4" /><rect x="185.59" y="178.00" width="3.17" height="8.00" fill="#7ccaa4" /><rect x="188.27" y="178.00" width="3.17" height="8.00" fill="#72c6a4" /><rect x="190.94" y="178.00" width="3.17" height="8.00" fill="#68c3a4" /><rect x="193.62" y="178.00" width="3.17" height="8.00" fill="#60bca7" /><rect x="196.29" y="178.00" width="3.17" height="8.00" fill="#59b3aa" /><rect x="198.96" y="178.00" width="3.17" height="8.00" fill="#52abae" /><rect x="201.64" y="178.00" width="3.17" height="8.00" fill="#4aa3b1" /><rect x="204.31" y="178.00" width="3.17" height="8.00" fill="#439bb4" /><rect x="206.99" y="178.00" width="3.17" height="8.00" fill="#3c93b8" /><rect x="209.66" y="178.00" width="3.17" height="8.00" fill="#348bbb" /><rect x="212.34" y="178.00" width="3.17" height="8.00" fill="#3583ba" /><rect x="215.01" y="178.00" width="3.17" height="8.00" fill="#3b7bb6" /><rect x="217.69" y="178.00" width="3.17" height="8.00" fill="#4273b3" /><rect x="220.36" y="178.00" width="3.17" height="8.00" fill="#486baf" /><rect x="223.04" y="178.00" width="3.17" height="8.00" fill="#4e63ab" /><rect x="225.71" y="178.00" width="3.17" height="8.00" fill="#545ba7" /><rect x="228.39" y="178.00" width="3.17" height="8.00" fill="#5a53a3" /><text x="252.0" text-anchor="end" y="185.0" font-family="'Noto Sans', sans-serif" fill="#404040" font-size="12.0px">4.0</text></svg>