<svg id="xyp_TESTID" x="0" y="0" width="200" height="200" xmlns="http://www.w3.org/2000/svg">
                        <defs>
                               <clipPath id="plotClip-TESTID">
                                 <rect x="13" y="1" width="186" height="186" />
                               </clipPath>
                             </defs>
                        <style> .rect-group-TESTID rect { width: 1px; height: 1px; } </style>
                        <rect x="0" y="0" width="200" height="200" fill="#ffffff" stroke="#ffffff" />
                        <text x="14" text-anchor="start" y="198" font-family="'Noto Sans', sans-serif" fill="#0015D2" font-size="12px">0.0</text><text x="105.94" text-anchor="middle" y="198" font-family="'Noto Sans', sans-serif" fill="#404040" font-size="12px">time</text><text x="198" text-anchor="end" y="198" font-family="'Noto Sans', sans-serif" fill="#A10000" font-size="12px">7.0</text><text x="12" text-anchor="start" y="186" font-family="'Noto Sans', sans-serif" fill="#0015D2" font-size="12px" transform="rotate(270,12,186)">1.0</text><text x="12" text-anchor="middle" y="94.06" font-family="'Noto Sans', sans-serif" fill="#404040" font-size="12px" transform="rotate(270,12,94.06)">value</text><text x="12" text-anchor="end" y="2" font-family="'Noto Sans', sans-serif" fill="#A10000" font-size="12px" transform="rotate(270,12,2)">5.0</text><line x1="14.0" y1="2" x2="14.0" y2="186" stroke="#a0a0a0" stroke-width="0.4" /><text x="14.0" text-anchor="start" y="2" font-family="'Noto Sans', sans-serif" fill="#a0a0a0" font-size="7.2px" transform="rotate(90,14.0,2)">0</text><line x1="66.6" y1="2" x2="66.6" y2="186" stroke="#a0a0a0" stroke-width="0.4" /><text x="66.6" text-anchor="start" y="2" font-family="'Noto Sans', sans-serif" fill="#a0a0a0" font-size="7.2px" transform="rotate(90,66.6,2)">2</text><line x1="119.1" y1="2" x2="119.1" y2="186" stroke="#a0a0a0" stroke-width="0.4" /><text x="119.1" text-anchor="start" y="2" font-family="'Noto Sans', sans-serif" fill="#a0a0a0" font-size="7.2px" transform="rotate(90,119.1,2)">4</text><line x1="171.7" y1="2" x2="171.7" y2="186" stroke="#a0a0a0" stroke-width="0.4" /><text x="171.7" text-anchor="start" y="2" font-family="'Noto Sans', sans-serif" fill="#a0a0a0" font-size="7.2px" transform="rotate(90,171.7,2)">6</text><line x1="14" y1="140.0" x2="198" y2="140.0" stroke="#a0a0a0" stroke-width="0.4" /><text x="14" text-anchor="start" y="140.0" font-family="'Noto Sans', sans-serif" fill="#a0a0a0" font-size="7.2px">2</text><line x1="14" y1="48.0" x2="198" y2="48.0" stroke="#a0a0a0" stroke-width="0.4" /><text x="14" text-anchor="start" y="48.0" font-family="'Noto Sans', sans-serif" fill="#a0a0a0" font-size="7.2px">4</text><rect x="14" y="2" width="184" height="184" stroke="#a0a0a0" fill="none" stroke-width="0.25" /> <g fill="none" stroke-width="0.5"  stroke-dasharray="none">
<path d="M 14.5 139.5 L 40.5 93.5 L 66.5 185.5 L 92.5 47.5" stroke="#706ecb"/>
<path d="M 119.5 139.5 L 145.5 2.5 L 171.5 93.5 L 197.5 47.5" stroke="#48de6f"/>
</g> <g class="rect-group-TESTID" stroke="none" fill="#3939ff"><rect x="119" y="139" fill="#48de6f" /><rect x="14" y="139" fill="#706ecb" /><rect x="145" y="2" fill="#48de6f" /><rect x="171" y="93" fill="#48de6f" /><rect x="197" y="47" fill="#48de6f" /><rect x="40" y="93" fill="#706ecb" /><rect x="66" y="185" fill="#706ecb" /><rect x="92" y="47" fill="#706ecb" /></g>  </svg>