<svg id="timep_TESTID" x="0" y="0" width="256" height="128" xmlns="http://www.w3.org/2000/svg"><rect x="0" y="0" width="256" height="128" fill="#ffffff" /><line x1="34.0" y1="2.0" x2="34.0" y2="7.0" stroke="#a0a0a0" stroke-width="0.3" /><line x1="54.0" y1="2.0" x2="54.0" y2="7.0" stroke="#a0a0a0" stroke-width="0.3" /><line x1="74.0" y1="2.0" x2="74.0" y2="7.0" stroke="#a0a0a0" stroke-width="0.3" /><line x1="94.0" y1="2.0" x2="94.0" y2="7.0" stroke="#a0a0a0" stroke-width="0.3" /><line x1="114.0" y1="2.0" x2="114.0" y2="7.0" stroke="#a0a0a0" stroke-width="0.3" /><line x1="134.0" y1="2.0" x2="134.0" y2="7.0" stroke="#a0a0a0" stroke-width="0.3" /><line x1="154.0" y1="2.0" x2="154.0" y2="7.0" stroke="#a0a0a0" stroke-width="0.3" /><line x1="174.0" y1="2.0" x2="174.0" y2="7.0" stroke="#a0a0a0" stroke-width="0.3" /><line x1="194.0" y1="2.0" x2="194.0" y2="7.0" stroke="#a0a0a0" stroke-width="0.3" /><line x1="214.0" y1="2.0" x2="214.0" y2="7.0" stroke="#a0a0a0" stroke-width="0.3" /><line x1="234.0" y1="2.0" x2="234.0" y2="7.0" stroke="#a0a0a0" stroke-width="0.3" /><rect x="14.0" y="103.1" width="19.0" height="6.9" fill="#3939ff" /><rect x="34.0" y="93.9" width="19.0" height="16.1" fill="#3939ff" /><rect x="54.0" y="84.7" width="19.0" height="25.3" fill="#3939ff" /><rect x="74.0" y="75.5" width="19.0" height="34.5" fill="#3939ff" /><rect x="94.0" y="66.3" width="19.0" height="43.7" fill="#3939ff" /><rect x="114.0" y="57.1" width="19.0" height="52.9" fill="#3939ff" /><rect x="134.0" y="48.0" width="19.0" height="62.0" fill="#3939ff" /><rect x="154.0" y="38.8" width="19.0" height="71.2" fill="#3939ff" /><rect x="174.0" y="29.6" width="19.0" height="80.4" fill="#3939ff" /><rect x="194.0" y="20.4" width="19.0" height="89.6" fill="#3939ff" /><rect x="214.0" y="11.2" width="19.0" height="98.8" fill="#3939ff" /><rect x="234.0" y="2.0" width="19.0" height="108.0" fill="#3939ff" /><rect x="14" y="2" width="240" height="108" stroke="#a0a0a0" fill="none" stroke-width="0.5" /><text x="12" text-anchor="end" y="2" font-family="'Noto Sans', sans-serif" fill="#000000" font-size="9.600000000000001px" transform="rotate(270,12,2)">470</text><text x="12" text-anchor="start" y="110" font-family="'Noto Sans', sans-serif" fill="#000000" font-size="9.600000000000001px" transform="rotate(270,12,110)">0</text><text x="14" text-anchor="start" y="124" font-family="'Noto Sans', sans-serif" fill="#000000" font-size="9.600000000000001px">2023-01</text><text x="134.0" text-anchor="middle" y="124" font-family="'Noto Sans', sans-serif" fill="#000000" font-size="9.600000000000001px">monthly</text><text x="254" text-anchor="end" y="124" font-family="'Noto Sans', sans-serif" fill="#000000" font-size="9.600000000000001px">2023-12</text><rect x="0" y="0" width="255" height="127" fill="none" stroke="#a0a0a0" stroke-width="1" /></svg>