<svg id="timep_TESTID" x="0" y="0" width="256" height="128" xmlns="http://www.w3.org/2000/svg"><rect x="0" y="0" width="256" height="128" fill="#ffffff" /><line x1="34.0" y1="2.0" x2="34.0" y2="110.0" stroke="#a0a0a0" stroke-width="0.5" /><text x="36.0" text-anchor="start" y="11.0" font-family="'Noto Sans', sans-serif" fill="#a0a0a0" font-size="9.0px">feb</text><line x1="54.0" y1="2.0" x2="54.0" y2="110.0" stroke="#a0a0a0" stroke-width="0.5" /><line x1="74.0" y1="2.0" x2="74.0" y2="110.0" stroke="#a0a0a0" stroke-width="0.5" /><text x="76.0" text-anchor="start" y="11.0" font-family="'Noto Sans', sans-serif" fill="#a0a0a0" font-size="9.0px">apr</text><line x1="94.0" y1="2.0" x2="94.0" y2="110.0" stroke="#a0a0a0" stroke-width="0.5" /><line x1="114.0" y1="2.0" x2="114.0" y2="110.0" stroke="#a0a0a0" stroke-width="0.5" /><text x="116.0" text-anchor="start" y="11.0" font-family="'Noto Sans', sans-serif" fill="#a0a0a0" font-size="9.0px">jun</text><line x1="134.0" y1="2.0" x2="134.0" y2="110.0" stroke="#a0a0a0" stroke-width="0.5" /><line x1="154.0" y1="2.0" x2="154.0" y2="110.0" stroke="#a0a0a0" stroke-width="0.5" /><text x="156.0" text-anchor="start" y="11.0" font-family="'Noto Sans', sans-serif" fill="#a0a0a0" font-size="9.0px">aug</text><line x1="174.0" y1="2.0" x2="174.0" y2="110.0" stroke="#a0a0a0" stroke-width="0.5" /><line x1="194.0" y1="2.0" x2="194.0" y2="110.0" stroke="#a0a0a0" stroke-width="0.5" /><text x="196.0" text-anchor="start" y="11.0" font-family="'Noto Sans', sans-serif" fill="#a0a0a0" font-size="9.0px">oct</text><line x1="214.0" y1="2.0" x2="214.0" y2="110.0" stroke="#a0a0a0" stroke-width="0.5" /><line x1="234.0" y1="2.0" x2="234.0" y2="110.0" stroke="#a0a0a0" stroke-width="0.5" /><text x="236.0" text-anchor="start" y="11.0" font-family="'Noto Sans', sans-serif" fill="#a0a0a0" font-size="9.0px">dec</text><rect x="14.0" y="56.0" width="19.0" height="54.0" fill="#3939ff" /><rect x="34.0" y="2.0" width="19.0" height="108.0" fill="#3939ff" /><rect x="54.0" y="56.0" width="19.0" height="54.0" fill="#3939ff" /><rect x="74.0" y="56.0" width="19.0" height="54.0" fill="#3939ff" /><rect x="94.0" y="2.0" width="19.0" height="108.0" fill="#3939ff" /><rect x="114.0" y="56.0" width="19.0" height="54.0" fill="#3939ff" /><rect x="134.0" y="56.0" width="19.0" height="54.0" fill="#3939ff" /><rect x="154.0" y="2.0" width="19.0" height="108.0" fill="#3939ff" /><rect x="174.0" y="56.0" width="19.0" height="54.0" fill="#3939ff" /><rect x="194.0" y="56.0" width="19.0" height="54.0" fill="#3939ff" /><rect x="214.0" y="2.0" width="19.0" height="108.0" fill="#3939ff" /><rect x="234.0" y="56.0" width="19.0" height="54.0" fill="#3939ff" /><rect x="14" y="2" width="240" height="108" stroke="#a0a0a0" fill="none" stroke-width="0.5" /><text x="12" text-anchor="end" y="2" font-family="'Noto Sans', sans-serif" fill="#000000" font-size="9.600000000000001px" transform="rotate(270,12,2)">2</text><text x="12" text-anchor="start" y="110" font-family="'Noto Sans', sans-serif" fill="#000000" font-size="9.600000000000001px" transform="rotate(270,12,110)">0</text><text x="14" text-anchor="start" y="124" font-family="'Noto Sans', sans-serif" fill="#000000" font-size="9.600000000000001px">jan</text><text x="134.0" text-anchor="middle" y="124" font-family="'Noto Sans', sans-serif" fill="#000000" font-size="9.600000000000001px">month</text><text x="254" text-anchor="end" y="124" font-family="'Noto Sans', sans-serif" fill="#000000" font-size="9.600000000000001px">dec</text><rect x="0" y="0" width="255" height="127" fill="none" stroke="#a0a0a0" stroke-width="1" /></svg>