<svg id="timep_TESTID" x="0" y="0" width="256" height="128" xmlns="http://www.w3.org/2000/svg"><rect x="0" y="0" width="256" height="128" fill="#ffffff" /><line x1="94.0" y1="2.0" x2="94.0" y2="7.0" stroke="#a0a0a0" stroke-width="0.3" /><line x1="174.0" y1="2.0" x2="174.0" y2="7.0" stroke="#a0a0a0" stroke-width="0.3" /><line x1="54.0" y1="-1834.0" x2="54.0" y2="-106.0" stroke="#3939ff" stroke-width="1" /><rect x="30.3" y="-1402.0" width="47.4" height="864.0" fill="#3939ff" fill-opacity="0.3" stroke="#3939ff" stroke-width="0.5" /><line x1="30.3" y1="-970.0" x2="77.7" y2="-970.0" stroke="#3939ff" stroke-width="1.5" /><line x1="134.0" y1="-1726.0" x2="134.0" y2="-214.0" stroke="#3939ff" stroke-width="1" /><rect x="110.3" y="-1294.0" width="47.4" height="864.0" fill="#3939ff" fill-opacity="0.3" stroke="#3939ff" stroke-width="0.5" /><line x1="110.3" y1="-1078.0" x2="157.7" y2="-1078.0" stroke="#3939ff" stroke-width="1.5" /><line x1="214.0" y1="-1942.0" x2="214.0" y2="2.0" stroke="#3939ff" stroke-width="1" /><rect x="190.3" y="-1510.0" width="47.4" height="648.0" fill="#3939ff" fill-opacity="0.3" stroke="#3939ff" stroke-width="0.5" /><line x1="190.3" y1="-1186.0" x2="237.7" y2="-1186.0" stroke="#3939ff" stroke-width="1.5" /><rect x="14" y="2" width="240" height="108" stroke="#a0a0a0" fill="none" stroke-width="0.5" /><text x="12" text-anchor="end" y="2" font-family="'Noto Sans', sans-serif" fill="#000000" font-size="9.600000000000001px" transform="rotate(270,12,2)">5</text><text x="12" text-anchor="start" y="110" font-family="'Noto Sans', sans-serif" fill="#000000" font-size="9.600000000000001px" transform="rotate(270,12,110)">0</text><text x="14" text-anchor="start" y="124" font-family="'Noto Sans', sans-serif" fill="#000000" font-size="9.600000000000001px">2023-01</text><text x="134.0" text-anchor="middle" y="124" font-family="'Noto Sans', sans-serif" fill="#000000" font-size="9.600000000000001px">monthly</text><text x="254" text-anchor="end" y="124" font-family="'Noto Sans', sans-serif" fill="#000000" font-size="9.600000000000001px">2023-03</text><rect x="0" y="0" width="255" height="127" fill="none" stroke="#a0a0a0" stroke-width="1" /></svg>