<svg id="xyp_TESTID" x="0" y="0" width="200" height="200" xmlns="http://www.w3.org/2000/svg">
                        <defs>
                               <clipPath id="plotClip-TESTID">
                                 <rect x="13" y="0" width="187" height="187" />
                               </clipPath>
                             </defs>
                        <style> .circle-group-TESTID </style>
                        <rect x="0" y="0" width="200" height="200" fill="#ffffff" stroke="#ffffff" />
                        <text x="14" text-anchor="start" y="198" font-family="'Noto Sans', sans-serif" fill="#0015D2" font-size="12px">1.0</text><text x="105.94" text-anchor="middle" y="198" font-family="'Noto Sans', sans-serif" fill="#404040" font-size="12px">x</text><text x="199" text-anchor="end" y="198" font-family="'Noto Sans', sans-serif" fill="#A10000" font-size="12px">5.0</text><text x="12" text-anchor="start" y="186" font-family="'Noto Sans', sans-serif" fill="#0015D2" font-size="12px" transform="rotate(270,12,186)">2.0</text><text x="12" text-anchor="middle" y="94.06" font-family="'Noto Sans', sans-serif" fill="#404040" font-size="12px" transform="rotate(270,12,94.06)">y</text><text x="12" text-anchor="end" y="1" font-family="'Noto Sans', sans-serif" fill="#A10000" font-size="12px" transform="rotate(270,12,1)">6.0</text><line x1="60.2" y1="1" x2="60.2" y2="186" stroke="#a0a0a0" stroke-width="0.4" /><text x="60.2" text-anchor="start" y="1" font-family="'Noto Sans', sans-serif" fill="#a0a0a0" font-size="7.2px" transform="rotate(90,60.2,1)">2</text><line x1="152.8" y1="1" x2="152.8" y2="186" stroke="#a0a0a0" stroke-width="0.4" /><text x="152.8" text-anchor="start" y="1" font-family="'Noto Sans', sans-serif" fill="#a0a0a0" font-size="7.2px" transform="rotate(90,152.8,1)">4</text><line x1="14" y1="186.0" x2="199" y2="186.0" stroke="#a0a0a0" stroke-width="0.4" /><text x="14" text-anchor="start" y="186.0" font-family="'Noto Sans', sans-serif" fill="#a0a0a0" font-size="7.2px">2</text><line x1="14" y1="93.5" x2="199" y2="93.5" stroke="#a0a0a0" stroke-width="0.4" /><text x="14" text-anchor="start" y="93.5" font-family="'Noto Sans', sans-serif" fill="#a0a0a0" font-size="7.2px">4</text><rect x="14" y="1" width="185" height="185" stroke="#a0a0a0" fill="none" stroke-width="0.25" />  <g class="circle-group-TESTID" stroke="none" fill="#3939ff" clip-path="url(#plotClip-TESTID)"><circle cx="106" cy="94" r="1.38" /><circle cx="14" cy="47" r="0.5" /><circle cx="153" cy="186" r="4.0" /><circle cx="199" cy="1" r="3.12" /><circle cx="60" cy="140" r="2.25" /></g>  <rect x="0" y="0" width="199" height="199" fill="none" stroke="#a0a0a0" stroke-width="1" /></svg>